<?xml version="1.0" encoding="UTF-8" standalone="no"?>
<svg
   version="1.1"
   width="1024"
   height="1024"
   id="svg122"
   sodipodi:docname="VI Websync V1,0.svg"
   inkscape:version="1.4.3 (0d15f75, 2025-12-25)"
   xmlns:inkscape="http://www.inkscape.org/namespaces/inkscape"
   xmlns:sodipodi="http://sodipodi.sourceforge.net/DTD/sodipodi-0.dtd"
   xmlns="http://www.w3.org/2000/svg"
   xmlns:svg="http://www.w3.org/2000/svg">
  <defs
     id="defs122">
    <rect
       x="831.30519"
       y="555.85042"
       width="133.4041"
       height="45.703257"
       id="rect131" />
  </defs>
  <sodipodi:namedview
     id="namedview122"
     pagecolor="#505050"
     bordercolor="#eeeeee"
     borderopacity="1"
     inkscape:showpageshadow="0"
     inkscape:pageopacity="0"
     inkscape:pagecheckerboard="0"
     inkscape:deskcolor="#505050"
     inkscape:zoom="1.1449053"
     inkscape:cx="493.49059"
     inkscape:cy="435.40718"
     inkscape:window-width="1920"
     inkscape:window-height="1009"
     inkscape:window-x="-8"
     inkscape:window-y="-8"
     inkscape:window-maximized="1"
     inkscape:current-layer="svg122" />
  <path
     d="M0 0 C337.92 0 675.84 0 1024 0 C1024 337.92 1024 675.84 1024 1024 C686.08 1024 348.16 1024 0 1024 C0 686.08 0 348.16 0 0 Z "
     fill="#FDFDFD"
     transform="translate(0,0)"
     id="path1" />
  <path
     d="M0 0 C16.5 0 33 0 50 0 C57.39484215 13.02500606 64.72240864 26.08015057 71.94287109 39.2020874 C78.89671438 51.83819237 85.93293156 64.42684202 93 77 C109.01201724 79.03977097 109.01201724 79.03977097 124.22607422 75.81933594 C127.54650264 72.76205812 129.3956463 68.97158163 131.15966797 64.86767578 C132.41251316 62.08317093 134.12840691 59.68412114 135.875 57.1875 C136.52082031 56.20910156 137.16664063 55.23070312 137.83203125 54.22265625 C140.3498393 50.47996861 142.94965138 46.80164516 145.5625 43.125 C150.36426077 36.361346 155.07904545 29.54213311 159.75 22.6875 C160.35142822 21.80529785 160.95285645 20.9230957 161.57250977 20.01416016 C162.45700806 18.71357666 162.45700806 18.71357666 163.359375 17.38671875 C164.27879883 16.09435303 164.27879883 16.09435303 165.21679688 14.77587891 C167.10743737 11.99975239 167.10743737 11.99975239 168.42382812 8.68896484 C170.26493724 4.86047444 171.65148855 2.65021624 175 0 C182.41637293 -2.00116525 190.41638025 -1.121414 198 -0.75 C200.13136075 -0.68976096 202.26288431 -0.63501609 204.39453125 -0.5859375 C209.59992352 -0.45414888 214.79920583 -0.25382362 220 0 C218.09632315 3.95387294 215.69246781 7.47100295 213.1875 11.0625 C212.18719262 12.5062975 211.18720578 13.95031713 210.1875 15.39453125 C209.66414062 16.14943848 209.14078125 16.9043457 208.6015625 17.68212891 C206.48551812 20.74458704 204.38897946 23.82013905 202.29248047 26.89599609 C194.37409615 38.50978703 186.3089764 50.01849526 178.22949219 61.52050781 C176.46458483 64.03386842 174.70065253 66.54790807 172.9375 69.0625 C172.36185303 69.88347168 171.78620605 70.70444336 171.19311523 71.55029297 C166.57484975 78.15004179 162.01855231 84.79089993 157.50097656 91.45996094 C153.94687592 96.68814263 150.24859047 101.741449 146.29296875 106.67578125 C144.63920399 109.6485608 144.61632907 111.64865752 145 115 C147.1385485 117.1385485 148.13275314 117.42655063 151 118 C151.27005859 117.42813965 151.54011719 116.8562793 151.81835938 116.26708984 C153.03131499 113.93991922 154.39595361 111.87184829 155.90625 109.7265625 C156.47972168 108.90953857 157.05319336 108.09251465 157.64404297 107.25073242 C158.25650879 106.38424072 158.86897461 105.51774902 159.5 104.625 C160.13437988 103.72305908 160.76875977 102.82111816 161.42236328 101.8918457 C165.2663111 96.43336196 169.13954691 90.99673082 173.03369141 85.57397461 C177.74862279 78.98802369 182.35136582 72.32366297 186.96948242 65.66967773 C191.01505134 59.84354404 195.08393349 54.03540127 199.1875 48.25 C203.33721536 42.39825022 207.40397711 36.49485914 211.4375 30.5625 C217.38629851 21.81574965 223.54325423 13.23032297 229.78588867 4.69140625 C230.89127817 3.15146286 231.94850852 1.57723722 233 0 C234.97119141 -0.34057617 234.97119141 -0.34057617 237.3515625 -0.29296875 C238.62773437 -0.2784668 238.62773437 -0.2784668 239.9296875 -0.26367188 C240.81914062 -0.23853516 241.70859375 -0.21339844 242.625 -0.1875 C243.97078125 -0.16719727 243.97078125 -0.16719727 245.34375 -0.14648438 C247.56309789 -0.11106925 249.78125188 -0.06168461 252 0 C250.52494707 4.36842599 248.1517099 7.69715951 245.375 11.3125 C240.3182007 18.03886755 235.63246092 24.97609746 231 32 C226.69255452 38.51998575 222.38344867 45.00257113 217.6875 51.25 C212.44612331 58.23139599 207.57038034 65.45385082 202.6875 72.6875 C195.93019271 82.69709966 189.0938768 92.64176763 182.14453125 102.51953125 C177.78849122 108.7129215 173.51343054 114.96153616 169.23193359 121.20654297 C167.329208 123.97654341 165.4146189 126.73820459 163.5 129.5 C160.74712464 133.47152036 158.00330695 137.44890856 155.26953125 141.43359375 C149.5274496 149.80255147 143.74008696 158.1394148 137.93261719 166.46313477 C134.80865707 170.94437846 131.69635795 175.43156431 128.63671875 179.95703125 C128.13333984 180.69953125 127.62996094 181.44203125 127.11132812 182.20703125 C126.18984103 183.56966924 125.27286276 184.93537185 124.36132812 186.3046875 C122.3984918 189.20354944 120.95305746 191.03129503 118 193 C113.41174638 187.32203615 109.24118138 181.46471192 105.23046875 175.3671875 C102.72449253 171.56446803 100.14509488 167.8134329 97.5625 164.0625 C97.10101563 163.38856201 96.63953125 162.71462402 96.1640625 162.02026367 C93.90335361 158.72616701 91.61777706 155.45718881 89.26171875 152.23046875 C88.62544556 151.34766235 88.62544556 151.34766235 87.97631836 150.44702148 C86.82135836 148.84874815 85.65328217 147.25997647 84.484375 145.671875 C83 143 83 143 83.1015625 140.8515625 C84.07349929 138.84852755 85.1939346 137.32788787 86.625 135.625 C88.58964451 132.96761956 89 132.31464688 89 128.875 C88.10555491 125.95079097 88.10555491 125.95079097 86.375 123.4375 C85 121 85 121 85.1875 118.375 C86 116 86 116 88 113 C88.7453231 106.78643908 86.95229822 103.20871291 83.875 98.0625 C83.43124023 97.29236572 82.98748047 96.52223145 82.53027344 95.72875977 C81.03537365 93.14333927 79.51858536 90.57157114 78 88 C76.90260731 86.12300263 75.80628269 84.24538046 74.7109375 82.3671875 C72.96215063 79.36958809 71.21206558 76.37281112 69.45654297 73.37915039 C65.21521343 66.13444861 61.08240617 58.83526007 57 51.5 C52.17072646 42.83601668 47.28559556 34.20734947 42.3125 25.625 C41.72404297 24.60212891 41.13558594 23.57925781 40.52929688 22.52539062 C39.97951172 21.58115234 39.42972656 20.63691406 38.86328125 19.6640625 C38.38157471 18.83342285 37.89986816 18.0027832 37.40356445 17.14697266 C36.07970795 15.12192586 34.85091701 13.55273088 33 12 C30.71669899 11.63853543 30.71669899 11.63853543 28.3125 11.8125 C26.875 11.875 25.4375 11.9375 24 12 C27.16610246 17.85295947 30.37143313 23.68096392 33.6484375 29.47265625 C34.26074219 30.55611328 34.87304688 31.63957031 35.50390625 32.75585938 C36.77205604 34.99696334 38.04297754 37.23650076 39.31640625 39.47460938 C39.92097656 40.54646484 40.52554688 41.61832031 41.1484375 42.72265625 C41.69677246 43.68953369 42.24510742 44.65641113 42.81005859 45.65258789 C44 48 44 48 44 50 C38.54492266 51.53025546 33.29599494 52.52026145 28 50 C22.45222247 44.27185276 19.21096833 36.51145344 15.72753906 29.43164062 C12.93754723 23.88950874 9.79461797 18.5559835 6.6875 13.1875 C5.60324652 11.28790295 4.52341749 9.38576968 3.44921875 7.48046875 C2.99893311 6.68535889 2.54864746 5.89024902 2.0847168 5.07104492 C1 3 1 3 0 0 Z "
     fill="#1B3A93"
     transform="translate(72,394)"
     id="path2" />
  <path
     d="M0 0 C7.59 0 15.18 0 23 0 C24.794375 3.196875 26.58875 6.39375 28.4375 9.6875 C39.71398521 29.6853009 51.45034413 49.41749047 63.1730957 69.15576172 C67.04170158 75.67510575 70.88143453 82.21019103 74.69067383 88.7644043 C76.43347711 91.76063378 78.18478319 94.75174968 79.9375 97.7421875 C81.80804085 100.93654863 83.64482578 104.14418905 85.4375 107.3828125 C86.12478324 108.58866524 86.81226156 109.79440682 87.5 111 C88.0465625 111.99 88.593125 112.98 89.15625 114 C90.90886232 116.33600027 90.90886232 116.33600027 94.15625 116.375 C96.89563877 116.30722565 96.89563877 116.30722565 98 115 C99.2312743 107.55027315 95.23351981 102.23891148 91.5625 96 C90.91724365 94.877146 90.2719873 93.75429199 89.60717773 92.59741211 C85.98439108 86.31613204 82.30394721 80.06714296 78.53417969 73.87280273 C74.8604549 67.82708627 71.34024756 61.69422061 67.8125 55.5625 C62.76971058 46.80093107 57.71603243 38.04614595 52.625 29.3125 C52.04830566 28.3229834 51.47161133 27.3334668 50.87744141 26.31396484 C47.16890355 19.96487107 43.42076716 13.64120232 39.57470703 7.37426758 C38.08039206 4.91911318 36.91387888 2.74163665 36 0 C41.45802473 -1.53108226 46.69533893 -2.50235645 52 0 C57.54267962 5.67870508 60.74348817 13.47237555 64.22607422 20.50537109 C67.11936802 26.20515191 70.3870066 31.67879163 73.625 37.1875 C74.88403251 39.36442871 76.14057383 41.54280024 77.39453125 43.72265625 C77.99990723 44.77469238 78.6052832 45.82672852 79.22900391 46.91064453 C80.91472783 49.85124978 82.59068501 52.79712047 84.26171875 55.74609375 C85.27842487 57.53918781 86.29534483 59.33216064 87.3125 61.125 C87.79251465 61.97126953 88.2725293 62.81753906 88.76708984 63.68945312 C92.35600218 69.97404833 96.12408756 76.12958408 100.0559082 82.20556641 C103 86.79583673 103 86.79583673 103 89 C104.32 88.34 105.64 87.68 107 87 C107.58962454 80.12998072 106.50703972 75.86827686 102.875 70.0625 C102.46773682 69.37591309 102.06047363 68.68932617 101.64086914 67.98193359 C100.44607615 65.97577418 99.22703654 63.98655728 98 62 C96.81109916 60.0425168 95.62334063 58.08433859 94.4375 56.125 C93.72400391 54.98417969 93.72400391 54.98417969 92.99609375 53.8203125 C92 52 92 52 92 50 C96.95 50 101.9 50 107 50 C105.37843846 47.01891633 103.75350244 44.039792 102.125 41.0625 C101.63483398 40.16547363 101.14466797 39.26844727 100.63964844 38.34423828 C96.89462301 31.53040595 92.99762494 24.82198539 88.91064453 18.20727539 C87.88148141 16.50580616 86.93177407 14.75669331 86 13 C86.33 12.34 86.66 11.68 87 11 C88.41493551 10.89115881 89.83232943 10.81402383 91.25 10.75 C92.03890625 10.70359375 92.8278125 10.6571875 93.640625 10.609375 C96.89486611 11.14815664 97.82576432 12.54689106 100 15 C101.20397215 16.86529209 102.34383132 18.77279203 103.43359375 20.70703125 C104.07594971 21.83955322 104.71830566 22.9720752 105.38012695 24.13891602 C106.06602574 25.36338365 106.75181415 26.58791311 107.4375 27.8125 C108.15198193 29.07708409 108.86707723 30.34132182 109.58276367 31.60522461 C111.38877845 34.79789336 113.18752347 37.99458855 114.98400879 41.19262695 C117.05255611 44.87241929 119.13081153 48.54673349 121.20751953 52.22192383 C122.27691266 54.11459025 123.34559849 56.00765647 124.41357422 57.90112305 C127.76074237 63.83019912 131.14573725 69.73579045 134.5625 75.625 C134.99836426 76.38014893 135.43422852 77.13529785 135.88330078 77.91333008 C138.33921024 82.16352573 140.82898901 86.39055032 143.3515625 90.6015625 C144.46369812 92.48428259 145.57568053 94.36709319 146.6875 96.25 C147.21738525 97.11963379 147.74727051 97.98926758 148.29321289 98.88525391 C151.14385683 103.74864678 152.8262395 107.18627842 152 113 C151.01268258 114.34275169 150.01405257 115.67732273 149 117 C149.16954591 120.22137232 150.08216763 122.15169409 151.625 125 C153 128 153 128 153 130.4375 C151.8658529 133.34375195 150.36115572 135.51221065 148.44921875 137.9609375 C146.85046918 140.13289609 146.85046918 140.13289609 145.21484375 143.19140625 C142.75931666 147.55422289 139.83589059 151.53244732 136.875 155.5625 C135.71058001 157.15989572 134.54652125 158.75755482 133.3828125 160.35546875 C132.52284668 161.53375244 132.52284668 161.53375244 131.64550781 162.73583984 C129.73694356 165.3619563 127.85187965 168.00394028 125.97338867 170.65161133 C124.38499187 172.88918727 122.78624566 175.11922068 121.18505859 177.34765625 C120.37023232 178.4837799 119.5582104 179.62191841 118.74853516 180.76171875 C117.52951571 182.47335241 116.29778845 184.17508501 115.0625 185.875 C114.35222656 186.86242187 113.64195313 187.84984375 112.91015625 188.8671875 C112.27980469 189.57101562 111.64945312 190.27484375 111 191 C110.01 191 109.02 191 108 191 C107.34257812 189.74123047 107.34257812 189.74123047 106.671875 188.45703125 C101.71824228 179.03884852 96.49187188 169.79296026 91.19140625 160.56640625 C88.01662508 155.0389288 84.88031682 149.49024642 81.75 143.9375 C76.46226028 134.5625369 71.12541606 125.216228 65.77523804 115.87683105 C61.65134242 108.67583062 57.56561948 101.45644847 53.5625 94.1875 C50.36623117 88.38667046 47.04378019 82.68542367 43.6015625 77.02758789 C40.13352697 71.29494322 36.84580782 65.46495075 33.5625 59.625 C29.82890687 52.98511969 26.0744929 46.36387082 22.1875 39.8125 C17.91074936 32.59423264 13.71424657 25.33047661 9.54214478 18.05136108 C8.80936434 16.77348448 8.07562926 15.4961548 7.34091187 14.21939087 C6.30657092 12.42124974 5.27584932 10.62108255 4.24609375 8.8203125 C3.64466553 7.77117676 3.0432373 6.72204102 2.42358398 5.64111328 C1 3 1 3 0 0 Z "
     fill="#FA6F28"
     transform="translate(9,394)"
     id="path3" />
  <path
     d="M0 0 C5.94 0 11.88 0 18 0 C18.05534912 1.54905029 18.11069824 3.09810059 18.16772461 4.6940918 C18.37423522 10.44359467 18.58609178 16.19289028 18.79956055 21.94213867 C18.89118853 24.43004111 18.98136843 26.91799731 19.07006836 29.40600586 C19.19784585 32.98306169 19.33083696 36.55989154 19.46484375 40.13671875 C19.50343002 41.24834885 19.5420163 42.35997894 19.58177185 43.5052948 C19.64172081 45.06634697 19.64172081 45.06634697 19.70288086 46.65893555 C19.75284462 48.02794258 19.75284462 48.02794258 19.80381775 49.42460632 C20.00134758 52.01769039 20.43626594 54.46349152 21 57 C21.37511719 56.05640625 21.75023437 55.1128125 22.13671875 54.140625 C22.65359698 52.84373053 23.17052692 51.54685667 23.6875 50.25 C23.93177734 49.63511719 24.17605469 49.02023437 24.42773438 48.38671875 C26.02888024 44.37372025 27.67495467 40.38216968 29.34765625 36.3984375 C32.25774806 29.43310174 35.0065858 22.40730971 37.75 15.375 C38.72284099 12.88237223 39.69703614 10.39028588 40.671875 7.8984375 C41.0956543 6.81224121 41.51943359 5.72604492 41.95605469 4.60693359 C43 2 43 2 44 0 C50.27 0 56.54 0 63 0 C63.17390259 2.21698608 63.17390259 2.21698608 63.35131836 4.47875977 C63.78332367 9.97861221 64.21825339 15.4782302 64.65405273 20.9777832 C64.84202166 23.35499916 65.02920462 25.73227741 65.21557617 28.10961914 C65.4840815 31.53288304 65.75544163 34.95591068 66.02734375 38.37890625 C66.10967758 39.43646622 66.19201141 40.49402618 66.27684021 41.58363342 C66.69057948 46.75752254 67.1881289 51.87289185 68 57 C71.60971358 47.30095197 75.16917445 37.58962044 78.5625 27.8125 C80.76454227 21.4733437 83.01810891 15.15836677 85.375 8.875 C85.62580322 8.20573486 85.87660645 7.53646973 86.13500977 6.84692383 C87.01518429 4.51787964 87.88570925 2.22858151 89 0 C94.61 0 100.22 0 106 0 C102.65987946 10.39148614 98.71454446 20.56391121 94.78125 30.7421875 C92.59995743 36.40715911 90.46118275 42.08721919 88.3359375 47.7734375 C88.01432648 48.6336853 87.69271545 49.49393311 87.36135864 50.38024902 C86.02658368 53.95181791 84.69245188 57.52362399 83.36035156 61.09619141 C82.37454352 63.73916854 81.38663904 66.38135452 80.3984375 69.0234375 C80.10149994 69.82147797 79.80456238 70.61951843 79.49862671 71.44174194 C79.07270737 72.579254 79.07270737 72.579254 78.63818359 73.73974609 C78.39345306 74.39558685 78.14872253 75.05142761 77.89657593 75.72714233 C76.66627145 78.84601591 75.32071815 81.91832431 74 85 C67.4 85 60.8 85 54 85 C52.91271759 73.81652374 51.85030213 62.63134872 50.875 51.4375 C50.78750488 50.47650391 50.70000977 49.51550781 50.60986328 48.52539062 C50.02449342 41.67055639 49.90481855 34.87799264 50 28 C49.34 28 48.68 28 48 28 C47.90074219 28.66515625 47.80148437 29.3303125 47.69921875 30.015625 C46.81694975 33.78128708 45.33447242 37.21009508 43.8125 40.75 C41.2883873 46.72898383 38.97821409 52.73555204 36.875 58.875 C34.91747711 64.5676112 32.77127957 70.0670772 30.17578125 75.5078125 C28.69883737 78.63834471 27.35175904 81.81343257 26 85 C22.68751813 85.02888146 19.37506833 85.04675799 16.0625 85.0625 C15.11697266 85.07087891 14.17144531 85.07925781 13.19726562 85.08789062 C11.84858398 85.09272461 11.84858398 85.09272461 10.47265625 85.09765625 C9.22367554 85.10551147 9.22367554 85.10551147 7.94946289 85.11352539 C6 85 6 85 5 84 C4.82974378 82.63636107 4.72285664 81.26471615 4.64282227 79.89282227 C4.58922546 79.01496567 4.53562866 78.13710907 4.48040771 77.23265076 C4.42628723 76.27029007 4.37216675 75.30792938 4.31640625 74.31640625 C4.25656555 73.32177872 4.19672485 72.32715118 4.1350708 71.30238342 C3.94025213 68.05597846 3.75145976 64.80925075 3.5625 61.5625 C3.29970607 57.15477518 3.03326074 52.74727702 2.765625 48.33984375 C2.70031082 47.25985107 2.63499664 46.1798584 2.56770325 45.06713867 C2.00934438 35.93171008 1.34686267 26.80848639 0.55883789 17.68969727 C0.06401631 11.77048063 -0.06957806 5.94089589 0 0 Z "
     fill="#10328D"
     transform="translate(468,422)"
     id="path4" />
  <path
     d="M0 0 C16.5 0 33 0 50 0 C57.39484215 13.02500606 64.72240864 26.08015057 71.94287109 39.2020874 C78.89671438 51.83819237 85.93293156 64.42684202 93 77 C93.8657666 76.99476318 94.7315332 76.98952637 95.62353516 76.98413086 C98.90755917 76.96685113 102.19153327 76.95443638 105.47558594 76.94506836 C106.88347141 76.94011102 108.29135194 76.93334314 109.69921875 76.92456055 C118.29797784 76.8723538 126.74786177 77.09238854 135.31787109 77.88110352 C137.97209154 78.2166147 137.97209154 78.2166147 140 77 C140 79.64 140 82.28 140 85 C139.34 84.01 138.68 83.02 138 82 C137.54625 82.495 137.0925 82.99 136.625 83.5 C135 85 135 85 133 85 C132.6596875 85.76183594 132.6596875 85.76183594 132.3125 86.5390625 C130.46641125 90.00047891 128.23628782 93.15585082 126 96.375 C125.50798096 97.08688477 125.01596191 97.79876953 124.5090332 98.53222656 C121.04992938 103.52346515 117.54096105 108.47723329 113.99560547 113.4074707 C109.53943899 119.61333527 105.17777055 125.88518376 100.82104492 132.16113281 C97.99480086 136.2173127 95.11072037 140.15480399 92 144 C91.46375 144.928125 90.9275 145.85625 90.375 146.8125 C89.92125 147.534375 89.4675 148.25625 89 149 C88.34 149 87.68 149 87 149 C82.90480401 143.85175361 82.90480401 143.85175361 83.22265625 141.0078125 C84.07105716 138.81646543 85.11807167 137.41816053 86.625 135.625 C88.58964451 132.96761956 89 132.31464688 89 128.875 C88.10555491 125.95079097 88.10555491 125.95079097 86.375 123.4375 C85 121 85 121 85.1875 118.375 C86 116 86 116 88 113 C88.7453231 106.78643908 86.95229822 103.20871291 83.875 98.0625 C83.43124023 97.29236572 82.98748047 96.52223145 82.53027344 95.72875977 C81.03537365 93.14333927 79.51858536 90.57157114 78 88 C76.90260731 86.12300263 75.80628269 84.24538046 74.7109375 82.3671875 C72.96215063 79.36958809 71.21206558 76.37281112 69.45654297 73.37915039 C65.21521343 66.13444861 61.08240617 58.83526007 57 51.5 C52.17072646 42.83601668 47.28559556 34.20734947 42.3125 25.625 C41.72404297 24.60212891 41.13558594 23.57925781 40.52929688 22.52539062 C39.97951172 21.58115234 39.42972656 20.63691406 38.86328125 19.6640625 C38.38157471 18.83342285 37.89986816 18.0027832 37.40356445 17.14697266 C36.07970795 15.12192586 34.85091701 13.55273088 33 12 C30.71669899 11.63853543 30.71669899 11.63853543 28.3125 11.8125 C26.875 11.875 25.4375 11.9375 24 12 C27.16610246 17.85295947 30.37143313 23.68096392 33.6484375 29.47265625 C34.26074219 30.55611328 34.87304688 31.63957031 35.50390625 32.75585938 C36.77205604 34.99696334 38.04297754 37.23650076 39.31640625 39.47460938 C39.92097656 40.54646484 40.52554688 41.61832031 41.1484375 42.72265625 C41.69677246 43.68953369 42.24510742 44.65641113 42.81005859 45.65258789 C44 48 44 48 44 50 C38.54492266 51.53025546 33.29599494 52.52026145 28 50 C22.45222247 44.27185276 19.21096833 36.51145344 15.72753906 29.43164062 C12.93754723 23.88950874 9.79461797 18.5559835 6.6875 13.1875 C5.60324652 11.28790295 4.52341749 9.38576968 3.44921875 7.48046875 C2.99893311 6.68535889 2.54864746 5.89024902 2.0847168 5.07104492 C1 3 1 3 0 0 Z "
     fill="#233D9A"
     transform="translate(72,394)"
     id="path5" />
  <path
     d="M0 0 C5.08623122 -0.07478624 10.17213442 -0.12889926 15.25878906 -0.16479492 C16.98508284 -0.17977675 18.71133926 -0.20016939 20.4375 -0.22631836 C42.73045909 -0.55529432 42.73045909 -0.55529432 50.5 5.4375 C54.54500759 9.58363278 55.30649899 12.4685149 55.375 18.25 C55.24335728 25.16511487 54.0652017 29.68783892 49.3515625 34.78125 C46.12951923 37.76410229 43.53554647 39.7251184 39 40 C39 40.66 39 41.32 39 42 C40.051875 42.2784375 40.051875 42.2784375 41.125 42.5625 C45.30632614 44.65316307 47.95046288 46.72388932 50 51 C51.05534371 58.14142361 51.29823017 65.96152775 47.39453125 72.29296875 C40.93611096 80.19865409 34.11602614 83.8541718 24 85 C20.99995217 85.12215286 18.00602494 85.11714472 15.00390625 85.09765625 C14.17036118 85.0962413 13.3368161 85.09482635 12.47801208 85.09336853 C9.83947014 85.08781168 7.20101591 85.0752674 4.5625 85.0625 C2.76367311 85.05747942 0.96484487 85.05291749 -0.83398438 85.04882812 C-5.22268958 85.03785643 -9.61132996 85.02062196 -14 85 C-13.40947225 77.25815844 -12.14752932 69.68689541 -10.75933838 62.05218506 C-10.08648983 58.35007554 -9.42665955 54.64564029 -8.765625 50.94140625 C-8.62516754 50.15588379 -8.48471008 49.37036133 -8.33999634 48.56103516 C-6.54740864 38.50838113 -4.83765712 28.44151991 -3.125 18.375 C-2.96811707 17.45371307 -2.81123413 16.53242615 -2.64959717 15.58322144 C-1.76510185 10.38903402 -0.88189898 5.19462885 0 0 Z "
     fill="#0F318C"
     transform="translate(641,422)"
     id="path6" />
  <path
     d="M0 0 C5.94 0 11.88 0 18 0 C20.64108149 5.28216298 23.1049134 10.4514076 25.3125 15.90234375 C25.60809814 16.62434464 25.90369629 17.34634552 26.20825195 18.09022522 C27.14175768 20.37146907 28.0711491 22.65435738 29 24.9375 C30.22736261 27.94735404 31.45683012 30.95634062 32.6875 33.96484375 C33.12425049 35.03501236 33.12425049 35.03501236 33.56982422 36.12680054 C35.12791387 39.92988979 36.7367072 43.69921293 38.4375 47.44140625 C40 51 40 51 40 53 C40.66 53 41.32 53 42 53 C42.03867187 52.06607422 42.03867187 52.06607422 42.078125 51.11328125 C42.55409598 43.35711786 43.89777588 35.92460103 45.40820312 28.31298828 C47.25550998 18.92027259 48.65646641 9.47598315 50 0 C55.61 0 61.22 0 67 0 C67 5.20812475 66.75640025 9.12910808 65.8125 14.125 C65.5368841 15.62093256 65.26222103 17.11704085 64.98828125 18.61328125 C64.83311035 19.4532666 64.67793945 20.29325195 64.51806641 21.15869141 C63.47663058 26.87039271 62.4898234 32.59166882 61.5 38.3125 C61.2827124 39.56426025 61.0654248 40.81602051 60.84155273 42.10571289 C59.58366249 49.41212111 58.42285039 56.72326744 57.375 64.0625 C56.35604524 71.18797202 54.92018146 78.05077187 53 85 C47.39 85 41.78 85 36 85 C35.12601563 82.78023437 35.12601563 82.78023437 34.234375 80.515625 C28.96214644 67.19785807 23.49473596 53.9906466 17.76074219 40.86621094 C17.26993164 39.73602539 16.77912109 38.60583984 16.2734375 37.44140625 C15.83435059 36.43795166 15.39526367 35.43449707 14.94287109 34.40063477 C14 32 14 32 14 30 C13.34 30 12.68 30 12 30 C11.95101562 30.77601563 11.90203125 31.55203125 11.8515625 32.3515625 C11.77679687 33.43179688 11.70203125 34.51203125 11.625 35.625 C11.55539062 36.66914063 11.48578125 37.71328125 11.4140625 38.7890625 C10.44327637 49.90298871 8.37076492 60.9098962 6.375 71.875 C6.14554688 73.14730469 5.91609375 74.41960937 5.6796875 75.73046875 C5.12204808 78.82072052 4.56135217 81.9104205 4 85 C-1.61 85 -7.22 85 -13 85 C-13 80.29406062 -12.92220938 76.6854596 -12.12963867 72.19848633 C-11.93911423 71.10236526 -11.74858978 70.0062442 -11.55229187 68.87690735 C-11.34296524 67.70709824 -11.13363861 66.53728912 -10.91796875 65.33203125 C-10.70312332 64.10199875 -10.48827789 62.87196625 -10.266922 61.60466003 C-9.69515938 58.33519102 -9.11860123 55.06664948 -8.53924561 51.79852295 C-7.51200704 45.99853761 -6.49566766 40.19663387 -5.48046875 34.39453125 C-5.26357391 33.15663849 -5.04667908 31.91874573 -4.82321167 30.64334106 C-3.04985911 20.4497228 -1.47974863 10.24025379 0 0 Z "
     fill="#0C2F88"
     transform="translate(843,422)"
     id="path7" />
  <path
     d="M0 0 C1.02287109 0.51046875 1.02287109 0.51046875 2.06640625 1.03125 C9.78006467 5.36377921 15.00256113 11.34970623 17.58984375 19.82421875 C18 22 18 22 18 27 C11.73 27 5.46 27 -1 27 C-4 21 -4 21 -4 19 C-10.2808232 15.59788744 -16.73128924 12.79516816 -24 14 C-32.4330981 16.51830648 -37.80628815 19.61069411 -42.1875 27.375 C-47.01239738 36.78913139 -48.84851233 45.56370761 -45.8125 56 C-44.3138474 59.8546739 -42.66989464 61.91483259 -39 64 C-32.37714086 66.78160084 -25.46341924 66.45759714 -18.69140625 64.24609375 C-13.3095366 61.81458742 -9.66942731 58.33885462 -7 53 C-0.4 53 6.2 53 13 53 C7.5758351 65.24811429 -0.43031202 74.91693313 -12.9296875 80.25 C-25.23667835 84.58302367 -38.06658116 84.52914004 -50.0625 79.375 C-58.28634805 74.98033071 -62.27079499 67.62780938 -65 59 C-68.78861528 46.50780909 -65.09929072 33.08913436 -59.390625 21.82421875 C-53.76213103 12.49072989 -46.92661755 5.56526928 -37 1 C-36.20207031 0.60683594 -35.40414062 0.21367187 -34.58203125 -0.19140625 C-24.21530354 -4.69254218 -10.21383729 -5.18002382 0 0 Z "
     fill="#0A2E89"
     transform="translate(979,424)"
     id="path8" />
  <path
     d="M0 0 C5.94 0 11.88 0 18 0 C20.06180563 8.45722126 21.26198069 17.01879918 22.5 25.625 C22.71455775 27.09509385 22.92939987 28.56514623 23.14453125 30.03515625 C24.34370334 38.26344488 25.48139283 46.49774163 26.55273438 54.74365234 C26.97814156 57.84085814 27.46969319 60.91919776 28 64 C30.41756738 59.02127022 32.83417124 54.04207364 35.25 49.0625 C35.61048431 48.31946625 35.97096863 47.5764325 36.34237671 46.81088257 C41.68239192 35.80174939 46.999816 24.78222719 52.28027344 13.74438477 C52.73047852 12.80393311 53.18068359 11.86348145 53.64453125 10.89453125 C54.02971924 10.08862549 54.41490723 9.28271973 54.81176758 8.45239258 C56.18282462 5.62266832 57.59378972 2.81242056 59 0 C65.27 0 71.54 0 78 0 C76.47696711 4.56909868 74.81085672 8.65875674 72.65625 12.91796875 C72.33119476 13.56798355 72.00613953 14.21799835 71.67123413 14.88771057 C70.61834858 16.98977488 69.55941267 19.08871873 68.5 21.1875 C67.76564911 22.64934442 67.03143772 24.11125893 66.29736328 25.57324219 C62.20187417 33.71484435 58.04102929 41.81661641 53.75048828 49.85742188 C47.59474898 61.44653005 41.83781762 73.24865819 36 85 C28.41 85 20.82 85 13 85 C6.92619144 49.87314048 6.92619144 49.87314048 4.33789062 33.4206543 C3.61808351 28.84643322 2.88372186 24.2768596 2.08984375 19.71484375 C1.94764404 18.89250244 1.80544434 18.07016113 1.65893555 17.22290039 C1.39851709 15.72770976 1.13354732 14.23329952 0.86254883 12.73999023 C0.09525952 8.32146217 0 4.59072805 0 0 Z "
     fill="#272CB5"
     transform="translate(334,422)"
     id="path9" />
  <path
     d="M0 0 C1.051875 0.5775 2.10375 1.155 3.1875 1.75 C7.40025012 5.1202001 9.55260322 8.42464877 10.46484375 13.67578125 C10.71626206 16.11075038 10.8660686 18.55575201 11 21 C4.73 21 -1.54 21 -8 21 C-8.66 18.69 -9.32 16.38 -10 14 C-12.32037992 12.09397364 -13.95555698 12.00567358 -16.9375 11.625 C-20.86918629 12.10643097 -22.35937738 13.05759194 -25 16 C-26.07106757 19.68179477 -26.45524414 21.88913399 -24.98828125 25.46875 C-22.25670881 28.94627247 -19.15943737 30.26558545 -15.1875 32.0625 C-2.19418645 38.11007912 -2.19418645 38.11007912 2.3125 43.625 C2.80363281 44.21539062 3.29476562 44.80578125 3.80078125 45.4140625 C6.93478585 49.55870702 6.3907905 54.00346427 6 59 C4.23239321 67.89002237 0.75042201 74.39484114 -6.734375 79.67578125 C-15.45049572 84.77020353 -24.8902516 85.0745491 -34.5625 83 C-40.57053652 81.20783002 -45.00297372 77.79643154 -49 73 C-51.57466559 67.95625447 -51.14829153 63.56093237 -51 58 C-45.06 58 -39.12 58 -33 58 C-32.34 60.64 -31.68 63.28 -31 66 C-26.97500157 68.68333228 -23.72857864 68.79639219 -19 68 C-15.34477137 65.48703032 -14.2500528 63.76405021 -12.875 59.5625 C-13.01119482 55.68094773 -13.83870819 54.32348606 -16.36425781 51.46508789 C-19.3182035 48.81932251 -22.80891848 47.44756998 -26.4375 45.9375 C-34.07133474 42.70395428 -40.73510627 39.35657097 -44.3046875 31.4375 C-46.12042812 25.07220703 -46.16937558 17.75026361 -43.5 11.625 C-39.16695647 4.40834651 -32.90082124 0.37024637 -25 -2 C-24.40316406 -2.18304688 -23.80632813 -2.36609375 -23.19140625 -2.5546875 C-15.37851512 -4.14233383 -6.94265077 -4.04987962 0 0 Z "
     fill="#10328D"
     transform="translate(750,424)"
     id="path10" />
  <path
     d="M0 0 C15.18 0 30.36 0 46 0 C45.41529465 4.67764277 44.77498426 9.35009445 44 14 C34.1 14 24.2 14 14 14 C13.01 20.93 12.02 27.86 11 35 C19.58 35 28.16 35 37 35 C36 46 36 46 35 49 C26.09 49 17.18 49 8 49 C8 51.64 8 54.28 8 57 C7.34 61.29 6.68 65.58 6 70 C15.24 70 24.48 70 34 70 C33.67 74.95 33.34 79.9 33 85 C17.49 85 1.98 85 -14 85 C-11.71648303 64.44834725 -11.71648303 64.44834725 -10.0625 55.5625 C-9.71097643 53.61090418 -9.36073648 51.65907676 -9.01171875 49.70703125 C-8.84075684 48.75393066 -8.66979492 47.80083008 -8.49365234 46.81884766 C-7.73224515 42.47106949 -7.0497693 38.11193279 -6.375 33.75 C-5.48358814 28.00718242 -4.54312028 22.28238114 -3.46875 16.5703125 C-2.73299637 12.53593011 -2.1022489 8.48454053 -1.46484375 4.43359375 C-1 2 -1 2 0 0 Z "
     fill="#0E308B"
     transform="translate(583,422)"
     id="path11" />
  <path
     d="M0 0 C1.41493551 -0.10884119 2.83232943 -0.18597617 4.25 -0.25 C5.03890625 -0.29640625 5.8278125 -0.3428125 6.640625 -0.390625 C9.89486611 0.14815664 10.82576432 1.54689106 13 4 C14.20397215 5.86529209 15.34383132 7.77279203 16.43359375 9.70703125 C17.39712769 11.40581421 17.39712769 11.40581421 18.38012695 13.13891602 C19.06602574 14.36338365 19.75181415 15.58791311 20.4375 16.8125 C21.15198193 18.07708409 21.86707723 19.34132182 22.58276367 20.60522461 C24.38877845 23.79789336 26.18752347 26.99458855 27.98400879 30.19262695 C30.05255611 33.87241929 32.13081153 37.54673349 34.20751953 41.22192383 C35.27691266 43.11459025 36.34559849 45.00765647 37.41357422 46.90112305 C40.76074237 52.83019912 44.14573725 58.73579045 47.5625 64.625 C47.99836426 65.38014893 48.43422852 66.13529785 48.88330078 66.91333008 C51.33921024 71.16352573 53.82898901 75.39055032 56.3515625 79.6015625 C57.46369812 81.48428259 58.57568053 83.36709319 59.6875 85.25 C60.21738525 86.11963379 60.74727051 86.98926758 61.29321289 87.88525391 C64.14385683 92.74864678 65.8262395 96.18627842 65 102 C64.01268258 103.34275169 63.01405257 104.67732273 62 106 C62.16954591 109.22137232 63.08216763 111.15169409 64.625 114 C66.22223133 117.48486836 66.06693525 118.41316742 65 122 C63.58984375 124.45703125 63.58984375 124.45703125 61.9375 126.8125 C61.38964844 127.60269531 60.84179688 128.39289063 60.27734375 129.20703125 C59.85582031 129.79871094 59.43429688 130.39039063 59 131 C55.19263219 126.64493659 52.63883713 121.88435869 49.9375 116.8125 C45.04544509 107.77392454 39.81104873 99.00756757 34.40039062 90.27294922 C30.45488473 83.86906849 26.61349323 77.40135479 22.75830078 70.94287109 C21.47728349 68.79883021 20.19444654 66.65594435 18.90966797 64.51416016 C17.05248743 61.4177133 15.20006192 58.31846212 13.35043335 55.21749878 C12.61904517 53.99290683 11.88616345 52.76920562 11.15176392 51.54641724 C10.1230976 49.83289059 9.10047461 48.11574039 8.078125 46.3984375 C7.48418945 45.40505371 6.89025391 44.41166992 6.27832031 43.38818359 C5 41 5 41 5 39 C9.95 39 14.9 39 20 39 C18.37843846 36.01891633 16.75350244 33.039792 15.125 30.0625 C14.63483398 29.16547363 14.14466797 28.26844727 13.63964844 27.34423828 C9.89462301 20.53040595 5.99762494 13.82198539 1.91064453 7.20727539 C0.88148141 5.50580616 -0.06822593 3.75669331 -1 2 C-0.67 1.34 -0.34 0.68 0 0 Z "
     fill="#EB421B"
     transform="translate(96,405)"
     id="path12" />
  <path
     d="M0 0 C6.27 0 12.54 0 19 0 C23.05822559 10.45773518 25.99831459 21.20085025 29 32 C29.66 32 30.32 32 31 32 C32.29133089 30.40496656 32.29133089 30.40496656 33.5390625 28.30078125 C34.03220947 27.50905518 34.52535645 26.7173291 35.03344727 25.90161133 C35.55865967 25.04720459 36.08387207 24.19279785 36.625 23.3125 C37.172771 22.45358154 37.72054199 21.59466309 38.28491211 20.7097168 C40.73597332 16.83895469 43.0687073 13.04794979 44.90234375 8.84375 C46.65143414 5.12333184 47.85719825 2.66974217 51 0 C57.24190688 -1.516309 63.69503431 -0.74363003 70 0 C68.42990571 3.31366889 66.56382171 6.35160285 64.5859375 9.4375 C63.90660156 10.49839844 63.22726562 11.55929687 62.52734375 12.65234375 C61.81707031 13.75707031 61.10679687 14.86179687 60.375 16 C59.68792969 17.07378906 59.00085938 18.14757812 58.29296875 19.25390625 C54.19269111 25.6466468 50.02353694 31.98821625 45.79882812 38.29931641 C43.51034331 41.7351496 41.27720466 45.20382943 39.0625 48.6875 C35.13486842 54.86513158 35.13486842 54.86513158 34 56 C33.72585407 57.71720663 33.50864655 59.44358154 33.31640625 61.171875 C33.19330078 62.22890625 33.07019531 63.2859375 32.94335938 64.375 C32.6912432 66.60913721 32.4412127 68.84351086 32.19335938 71.078125 C32.06896484 72.1403125 31.94457031 73.2025 31.81640625 74.296875 C31.70756104 75.26979492 31.59871582 76.24271484 31.48657227 77.24511719 C31 80 31 80 29 85 C23.39 85 17.78 85 12 85 C12.53578838 78.1419087 13.5772152 71.52358928 14.98364258 64.79882812 C16.67809318 56.36739266 15.76675068 50.29168176 13.0625 42.3125 C12.42699555 40.37633089 11.79158376 38.44013137 11.15625 36.50390625 C10.81207031 35.46766113 10.46789062 34.43141602 10.11328125 33.36376953 C8.48168321 28.43391038 6.88251958 23.49371859 5.28881836 18.55151367 C4.47823651 16.03875834 3.66400859 13.52717595 2.84594727 11.0168457 C2.47526123 9.87175537 2.1045752 8.72666504 1.72265625 7.546875 C1.39015869 6.52432617 1.05766113 5.50177734 0.71508789 4.44824219 C0 2 0 2 0 0 Z "
     fill="#12348E"
     transform="translate(767,422)"
     id="path13" />
  <path
     d="M0 0 C5.61 0 11.22 0 17 0 C17 5.17938372 16.75359123 9.2525022 15.86328125 14.25 C15.74359482 14.93328369 15.62390839 15.61656738 15.50059509 16.32055664 C15.24327969 17.78657851 14.98336609 19.25214634 14.72106934 20.71728516 C14.02219966 24.62193497 13.34235109 28.52990869 12.66015625 32.4375 C12.52068573 33.23341553 12.38121521 34.02933105 12.23751831 34.84936523 C10.61387734 44.14616168 9.12797772 53.46434869 7.6496582 62.78515625 C6.77169548 68.29970723 5.8811964 73.81144667 4.921875 79.3125 C4.69129395 80.63701172 4.69129395 80.63701172 4.45605469 81.98828125 C4 84 4 84 3 85 C0.13732433 85.07325168 -2.700719 85.09238205 -5.5625 85.0625 C-6.36880859 85.05798828 -7.17511719 85.05347656 -8.00585938 85.04882812 C-10.00393756 85.03700518 -12.00197783 85.01906914 -14 85 C-13.53912268 76.00524287 -12.28567011 67.30932934 -10.53192139 58.48669434 C-9.83298327 54.96694808 -9.15817269 51.44260124 -8.484375 47.91796875 C-8.35207489 47.22736359 -8.21977478 46.53675842 -8.08346558 45.82522583 C-7.03811485 40.31778459 -6.1536652 34.80061637 -5.375 29.25 C-3.9937751 19.41538818 -2.03653861 9.71749387 0 0 Z "
     fill="#F4292C"
     transform="translate(425,422)"
     id="path14" />
  <path
     d="M0 0 C1.41493551 -0.10884119 2.83232943 -0.18597617 4.25 -0.25 C5.03890625 -0.29640625 5.8278125 -0.3428125 6.640625 -0.390625 C9.89486611 0.14815664 10.82576432 1.54689106 13 4 C14.20397215 5.86529209 15.34383132 7.77279203 16.43359375 9.70703125 C17.39712769 11.40581421 17.39712769 11.40581421 18.38012695 13.13891602 C19.06602574 14.36338365 19.75181415 15.58791311 20.4375 16.8125 C21.15198193 18.07708409 21.86707723 19.34132182 22.58276367 20.60522461 C24.38877845 23.79789336 26.18752347 26.99458855 27.98400879 30.19262695 C30.05255611 33.87241929 32.13081153 37.54673349 34.20751953 41.22192383 C35.27691266 43.11459025 36.34559849 45.00765647 37.41357422 46.90112305 C40.76074237 52.83019912 44.14573725 58.73579045 47.5625 64.625 C47.99836426 65.38014893 48.43422852 66.13529785 48.88330078 66.91333008 C51.33921024 71.16352573 53.82898901 75.39055032 56.3515625 79.6015625 C57.46369812 81.48428259 58.57568053 83.36709319 59.6875 85.25 C60.21738525 86.11963379 60.74727051 86.98926758 61.29321289 87.88525391 C64.1285729 92.72257134 65.91807279 96.21981369 65 102 C62.5 104.9375 62.5 104.9375 60 107 C55.204751 100.13183899 51.12787864 92.97653831 47.125 85.625 C41.8209234 75.9541856 36.34744851 66.40423335 30.6875 56.9375 C25.90974654 48.94225208 21.20757289 40.92607244 16.74951172 32.74780273 C14.32872694 28.32748463 11.81672503 23.97189794 9.24609375 19.63671875 C8.59592285 18.53803467 7.94575195 17.43935059 7.27587891 16.30737305 C5.98424201 14.13157039 4.68591207 11.95972469 3.38037109 9.79223633 C2.79723145 8.80892334 2.2140918 7.82561035 1.61328125 6.8125 C1.08516846 5.93207031 0.55705566 5.05164063 0.01293945 4.14453125 C-0.48846558 3.08298828 -0.48846558 3.08298828 -1 2 C-0.67 1.34 -0.34 0.68 0 0 Z "
     fill="#F9F8FA"
     transform="translate(96,405)"
     id="path15" />
  <path
     d="M0 0 C6.27 0 12.54 0 19 0 C17.47696693 4.56909921 15.81085049 8.6587576 13.65625 12.91796875 C13.3305603 13.56925247 13.00487061 14.22053619 12.66931152 14.89155579 C11.6170698 16.99234009 10.5587957 19.09001232 9.5 21.1875 C8.77590614 22.62883817 8.05194834 24.07024471 7.328125 25.51171875 C2.01366208 36.07577951 -3.41263299 46.57741153 -9 57 C-9.67401855 56.8570752 -10.34803711 56.71415039 -11.04248047 56.56689453 C-11.93338379 56.38239746 -12.82428711 56.19790039 -13.7421875 56.0078125 C-15.06259033 55.73155029 -15.06259033 55.73155029 -16.40966797 55.44970703 C-19.68653484 54.88081082 -22.68407724 54.85582945 -26 55 C-20.29729405 39.48704465 -12.43978827 24.73401547 -5 10 C-3.9990283 8.00048614 -2.99887751 6.00056085 -2 4 C-1.34 2.68 -0.68 1.36 0 0 Z "
     fill="#F66B21"
     transform="translate(393,422)"
     id="path16" />
  <path
     d="M0 0 C1.05960938 0.08378906 2.11921875 0.16757812 3.2109375 0.25390625 C4.59893625 0.35706832 5.98695835 0.45991663 7.375 0.5625 C8.07367188 0.61857422 8.77234375 0.67464844 9.4921875 0.73242188 C13.36528865 1.11499904 13.36528865 1.11499904 17 0 C17 2.64 17 5.28 17 8 C16.34 7.01 15.68 6.02 15 5 C14.54625 5.495 14.0925 5.99 13.625 6.5 C12 8 12 8 10 8 C9.773125 8.50789063 9.54625 9.01578125 9.3125 9.5390625 C7.46641125 13.00047891 5.23628782 16.15585082 3 19.375 C2.50798096 20.08688477 2.01596191 20.79876953 1.5090332 21.53222656 C-1.95007062 26.52346515 -5.45903895 31.47723329 -9.00439453 36.4074707 C-13.46056101 42.61333527 -17.82222945 48.88518376 -22.17895508 55.16113281 C-25.00519914 59.2173127 -27.88927963 63.15480399 -31 67 C-31.53625 67.928125 -32.0725 68.85625 -32.625 69.8125 C-33.07875 70.534375 -33.5325 71.25625 -34 72 C-34.66 72 -35.32 72 -36 72 C-38.1875 69.25 -38.1875 69.25 -40 66 C-39.6397343 62.83835793 -38.41114154 60.99722018 -36.4375 58.5625 C-34.58823586 56.09681448 -34.02332504 55.21925534 -33.6875 52.0625 C-33.790625 51.381875 -33.89375 50.70125 -34 50 C-33.34 50 -32.68 50 -32 50 C-32 49.34 -32 48.68 -32 48 C-31.34 48 -30.68 48 -30 48 C-29.7321167 47.11481689 -29.4642334 46.22963379 -29.18823242 45.31762695 C-28.06306544 42.17608305 -26.77666185 39.72076806 -24.98828125 36.91796875 C-24.39466797 35.98533203 -23.80105469 35.05269531 -23.18945312 34.09179688 C-22.57005859 33.13337891 -21.95066406 32.17496094 -21.3125 31.1875 C-20.71244141 30.24068359 -20.11238281 29.29386719 -19.49414062 28.31835938 C-16.06367612 22.96447654 -12.46574008 17.86567559 -8.46337891 12.92333984 C-6.55031396 10.40897121 -5.2593782 7.88916175 -4 5 C-3.34 5 -2.68 5 -2 5 C-2 4.01 -2 3.02 -2 2 C-1.34 2 -0.68 2 0 2 C0 1.34 0 0.68 0 0 Z "
     fill="#0E286F"
     transform="translate(195,471)"
     id="path17" />
  <path
     d="M0 0 C1.953125 0.13020833 3.90625 0.26041667 5.859375 0.390625 C6.354375 1.875625 6.354375 1.875625 6.859375 3.390625 C6.199375 3.390625 5.539375 3.390625 4.859375 3.390625 C4.53066406 4.38835937 4.53066406 4.38835937 4.1953125 5.40625 C2.42613497 9.35844777 0.01704908 12.6428747 -2.515625 16.140625 C-3.60949308 17.67048849 -4.70323981 19.20043877 -5.796875 20.73046875 C-6.35503906 21.5076123 -6.91320312 22.28475586 -7.48828125 23.08544922 C-10.01586518 26.61166782 -12.51591833 30.15711734 -15.015625 33.703125 C-15.50321289 34.39349854 -15.99080078 35.08387207 -16.49316406 35.79516602 C-19.82838835 40.51970684 -23.1478986 45.25504571 -26.45996094 49.99584961 C-28.23539291 52.53489016 -30.01605224 55.07020754 -31.796875 57.60546875 C-33.92781969 60.64279637 -36.03151499 63.69567805 -38.109375 66.76953125 C-38.5616748 67.42864502 -39.01397461 68.08775879 -39.47998047 68.7668457 C-40.31279738 69.98064551 -41.13546133 71.20150009 -41.94580078 72.43041992 C-43.0546875 74.03125 -43.0546875 74.03125 -45.140625 76.390625 C-46.460625 76.390625 -47.780625 76.390625 -49.140625 76.390625 C-50.13451586 70.15119903 -49.37113049 66.03322991 -45.828125 60.765625 C-44.69426234 59.20581394 -43.55926372 57.64666851 -42.40283203 56.10351562 C-40.58363097 53.63475071 -38.87341726 51.09582342 -37.15234375 48.55810547 C-32.90445071 42.30143766 -28.55376062 36.12008788 -24.13476562 29.98339844 C-21.57036166 26.41544425 -19.04545475 22.82265124 -16.54296875 19.2109375 C-15.60578003 17.86080566 -15.60578003 17.86080566 -14.6496582 16.48339844 C-13.41692959 14.70515108 -12.1874645 12.92463582 -10.96166992 11.14160156 C-10.39424072 10.32401367 -9.82681152 9.50642578 -9.2421875 8.6640625 C-8.74025879 7.93622559 -8.23833008 7.20838867 -7.72119141 6.45849609 C-3.23603229 0.59051684 -3.23603229 0.59051684 0 0 Z "
     fill="#F6F7FA"
     transform="translate(262.140625,404.609375)"
     id="path18" />
  <path
     d="M0 0 C5.94 0 11.88 0 18 0 C21.21108964 13.90541428 23.5107404 27.69926891 23 42 C17.39 41.67 11.78 41.34 6 41 C0 12.04854369 0 12.04854369 0 0 Z "
     fill="#F86B24"
     transform="translate(334,422)"
     id="path19" />
  <path
     d="M0 0 C0.40133244 6.88210815 -0.23308767 13.3644977 -1.4375 20.125 C-1.57196533 20.88353271 -1.70643066 21.64206543 -1.8449707 22.42358398 C-2.86096208 27.86096208 -2.86096208 27.86096208 -4 29 C-6.86267567 29.07325168 -9.700719 29.09238205 -12.5625 29.0625 C-13.36880859 29.05798828 -14.17511719 29.05347656 -15.00585938 29.04882812 C-17.00393756 29.03700518 -19.00197783 29.01906914 -21 29 C-19.91588785 6.8317757 -19.91588785 6.8317757 -16 -1 C-10.31632113 -2.89455962 -5.50196983 -2.14711018 0 0 Z "
     fill="#312DB7"
     transform="translate(432,478)"
     id="path20" />
  <path
     d="M0 0 C2.54232342 -0.08152344 5.08199202 -0.14073716 7.625 -0.1875 C8.33785156 -0.21263672 9.05070313 -0.23777344 9.78515625 -0.26367188 C14.61722356 -0.33016821 17.78576993 0.38667114 22 3 C24.3941161 5.3941161 24.29598923 6.03786311 24.3125 9.3125 C24.20891986 13.34565167 23.68859882 15.84784966 21 19 C16.34745451 22.77110621 11.88159338 22.35310003 6.1875 22.1875 C4.86202148 22.16719727 4.86202148 22.16719727 3.50976562 22.14648438 C1.33957977 22.11129217 -0.83029033 22.05748985 -3 22 C-3.16335585 16.76580643 -2.60552037 12.13693808 -1.5 7.0625 C-1.35691406 6.37865234 -1.21382812 5.69480469 -1.06640625 4.99023438 C-0.71716229 3.32550486 -0.35947054 1.66255125 0 0 Z "
     fill="#F6F7FB"
     transform="translate(650,470)"
     id="path21" />
  <path
     d="M0 0 C0.33 0.66 0.66 1.32 1 2 C3.54941373 2.31241371 6.00361513 2.51303421 8.5625 2.625 C9.62887695 2.68300781 9.62887695 2.68300781 10.71679688 2.7421875 C12.47742425 2.83671783 14.23867728 2.91945817 16 3 C17 6 17 6 15.92016602 8.63549805 C15.37030029 9.66715088 14.82043457 10.69880371 14.25390625 11.76171875 C13.66416016 12.87998047 13.07441406 13.99824219 12.46679688 15.15039062 C11.83224673 16.32954307 11.19747826 17.50857805 10.5625 18.6875 C9.93072136 19.87776773 9.29985047 21.06851776 8.66992188 22.25976562 C7.12216526 25.17805482 5.56523479 28.0910587 4 31 C3.32598145 30.8570752 2.65196289 30.71415039 1.95751953 30.56689453 C1.06661621 30.38239746 0.17571289 30.19790039 -0.7421875 30.0078125 C-1.62245605 29.8236377 -2.50272461 29.63946289 -3.40966797 29.44970703 C-6.68653484 28.88081082 -9.68407724 28.85582945 -13 29 C-9.33912648 19.04139999 -4.59451935 9.55083503 0 0 Z "
     fill="#EB3656"
     transform="translate(380,448)"
     id="path23" />
  <path
     d="M0 0 C2.54232342 -0.08152344 5.08199202 -0.14073716 7.625 -0.1875 C8.33785156 -0.21263672 9.05070313 -0.23777344 9.78515625 -0.26367188 C14.59923324 -0.32992064 17.83794702 0.31903794 22 3 C24.27759465 6.41639197 24.16729212 8.02608242 23.5390625 12 C22.7088955 15.0800399 21.29899089 16.82873082 19 19 C14.65479095 21.30464126 10.48677709 21.23651135 5.6875 21.125 C4.94693359 21.11597656 4.20636719 21.10695313 3.44335938 21.09765625 C1.62876533 21.07424213 -0.18566071 21.03837615 -2 21 C-1.85738906 18.81228756 -1.71075539 16.62483718 -1.5625 14.4375 C-1.48128906 13.21933594 -1.40007813 12.00117188 -1.31640625 10.74609375 C-1.0105741 7.12519214 -0.5497926 3.58982228 0 0 Z "
     fill="#F6F7FA"
     transform="translate(655,436)"
     id="path25" />
  <path
     d="M0 0 C0.33 0 0.66 0 1 0 C1.12117188 1.18335938 1.24234375 2.36671875 1.3671875 3.5859375 C2.19612316 17.16928496 2.19612316 17.16928496 6 30 C5.01 30 4.02 30 3 30 C3 29.01 3 28.02 3 27 C-2.22745859 25.7936634 -6.76528314 26.24387423 -12 27 C-12 28.65 -12 30.3 -12 32 C-12.33 32 -12.66 32 -13 32 C-14.32 23.09 -15.64 14.18 -17 5 C-3.375 4.875 -3.375 4.875 0 6 C0 4.02 0 2.04 0 0 Z "
     fill="#992FA1"
     transform="translate(357,458)"
     id="path29" />
  <path
     d="M0 0 C1.12921875 0.13535156 1.12921875 0.13535156 2.28125 0.2734375 C4.39772937 0.60879515 6.4313137 1.07021595 8.5 1.625 C7.87954537 5.85822844 6.39476441 9.14790295 4.4375 12.9375 C3.88964844 14.00613281 3.34179688 15.07476562 2.77734375 16.17578125 C2.35582031 16.98402344 1.93429687 17.79226563 1.5 18.625 C0.84 18.295 0.18 17.965 -0.5 17.625 C-5.33972794 16.97488729 -10.18056224 16.60185197 -15.0625 16.6875 C-19.68120176 16.6035236 -24.00558506 15.6378259 -28.5 14.625 C-28.83 12.645 -29.16 10.665 -29.5 8.625 C-20.48468271 6.34928884 -20.48468271 6.34928884 -16.375 7.5 C-15.75625 7.87125 -15.1375 8.2425 -14.5 8.625 C-14.5 9.615 -14.5 10.605 -14.5 11.625 C-13.51 11.625 -12.52 11.625 -11.5 11.625 C-11.37625 10.738125 -11.2525 9.85125 -11.125 8.9375 C-10.54374451 5.85684589 -9.99448886 3.37800579 -8.5 0.625 C-5.53768587 -0.46569954 -3.10086621 -0.39291798 0 0 Z "
     fill="#5127B5"
     transform="translate(374.5,476.375)"
     id="path31" />
  <path
     d="M0 0 C5.61 0 11.22 0 17 0 C17 4.6122996 16.96192966 8.27388054 16.1875 12.6875 C16.03667969 13.59886719 15.88585937 14.51023437 15.73046875 15.44921875 C14.94299696 18.1990534 13.84576444 19.84070845 12 22 C12 20.35 12 18.7 12 17 C11.48050781 17.30035156 10.96101563 17.60070312 10.42578125 17.91015625 C4.67820707 21.0442309 4.67820707 21.0442309 1.125 20.8125 C-1 20 -1 20 -3 19 C-2.69127671 16.39533457 -2.37818277 13.79132309 -2.0625 11.1875 C-1.97548828 10.44951172 -1.88847656 9.71152344 -1.79882812 8.95117188 C-1.41783454 5.83266879 -0.99630626 2.98891878 0 0 Z "
     fill="#F66824"
     transform="translate(425,422)"
     id="path35" />
  <path
     d="M0 0 C4.95 0 9.9 0 15 0 C17.56600437 6.41501093 17.13910807 11.11415051 17 18 C11.39 17.67 5.78 17.34 0 17 C-2 7.5 -2 7.5 -2 3 C-1.34 3 -0.68 3 0 3 C0 2.01 0 1.02 0 0 Z "
     fill="#F22C40"
     transform="translate(340,446)"
     id="path39" />
  <path
     d="M0 0 C0 0.66 0 1.32 0 2 C1.093125 1.979375 2.18625 1.95875 3.3125 1.9375 C7 2 7 2 10 3 C9.01 9.93 8.02 16.86 7 24 C6.67 24 6.34 24 6 24 C6 22.35 6 20.7 6 19 C5.236875 19.020625 4.47375 19.04125 3.6875 19.0625 C1 19 1 19 -2 18 C-3.39439664 17.93334624 -4.79169875 17.91461801 -6.1875 17.9375 C-7.445625 17.958125 -8.70375 17.97875 -10 18 C-9.69548313 14.66327261 -9.35766946 11.33143558 -9 8 C-8.896875 7.030625 -8.79375 6.06125 -8.6875 5.0625 C-7.18064864 0.54194592 -4.46762364 0 0 0 Z "
     fill="#D43681"
     transform="translate(426,459)"
     id="path40" />
  <path
     d="M0 0 C5.94 1.485 5.94 1.485 12 3 C12 4.32 12 5.64 12 7 C12.99 6.67 13.98 6.34 15 6 C13.68938409 10.23429756 12.05643741 14.07407404 10 18 C9.35933594 17.855625 8.71867187 17.71125 8.05859375 17.5625 C2.91959623 16.45964509 -1.74695843 15.77160689 -7 16 C-4.87594923 10.5443163 -2.72823857 5.18365329 0 0 Z "
     fill="#D13784"
     transform="translate(374,461)"
     id="path46" />
  <path
     d="M0 0 C0 3.63 0 7.26 0 11 C-1.32 10.67 -2.64 10.34 -4 10 C-6.06204667 9.95675918 -8.12539156 9.95981275 -10.1875 10 C-12.12463749 10.03747787 -14.06306736 10.04688491 -16 10 C-17.89885096 8.10114904 -17.12367506 5.42752097 -17.1328125 2.91015625 C-17 1 -17 1 -16 -1 C-10.31632113 -2.89455962 -5.50196983 -2.14711018 0 0 Z "
     fill="#8230AB"
     transform="translate(432,478)"
     id="path50" />
  <path
     d="M0 0 C0.33 0 0.66 0 1 0 C1.87401535 5.24409211 2 9.48261078 2 15 C-3.94 14.67 -9.88 14.34 -16 14 C-16.33 11.03 -16.66 8.06 -17 5 C-14.72923158 4.97300275 -12.45837179 4.95360547 -10.1875 4.9375 C-8.92292969 4.92589844 -7.65835937 4.91429687 -6.35546875 4.90234375 C-3 5 -3 5 0 6 C0 4.02 0 2.04 0 0 Z "
     fill="#BD3391"
     transform="translate(357,458)"
     id="path53" />
  <path
     d="M0 0 C1.65 0 3.3 0 5 0 C5 0.66 5 1.32 5 2 C6.918125 1.938125 6.918125 1.938125 8.875 1.875 C11.0546875 1.8046875 11.0546875 1.8046875 13 2 C13.66 2.66 14.32 3.32 15 4 C14.6730244 6.61580479 14.17960932 8.64078137 13 11 C10.72886197 10.85899143 8.45809275 10.71203245 6.1875 10.5625 C4.92292969 10.48128906 3.65835937 10.40007812 2.35546875 10.31640625 C-1 10 -1 10 -4 9 C-3.67 7.68 -3.34 6.36 -3 5 C-2.34 5 -1.68 5 -1 5 C-0.67 3.35 -0.34 1.7 0 0 Z "
     fill="#F5312C"
     transform="translate(385,441)"
     id="path55" />
  <path
     d="M0 0 C1.12921875 0.13535156 1.12921875 0.13535156 2.28125 0.2734375 C4.39772937 0.60879515 6.4313137 1.07021595 8.5 1.625 C7.96930939 5.44597239 7.00298434 7.68671403 4.5 10.625 C4.17 10.295 3.84 9.965 3.5 9.625 C0.74899679 9.59317021 -1.98880906 9.69338482 -4.73828125 9.78515625 C-7.55368284 9.62188685 -9.1134936 9.07050862 -11.5 7.625 C-10.25 4.1875 -10.25 4.1875 -8.5 0.625 C-5.58122646 -0.56620886 -3.08662815 -0.39111384 0 0 Z "
     fill="#7F28A9"
     transform="translate(374.5,476.375)"
     id="path56" />
  <path
     d="M0 0 C0.66 1.32 1.32 2.64 2 4 C2.66 3.67 3.32 3.34 4 3 C6.01927511 3.60578253 8.02253397 4.26919734 10 5 C10 6.32 10 7.64 10 9 C13.01031744 9.93423645 13.86650268 10.04449911 17 9 C16.67 10.98 16.34 12.96 16 15 C12.58900832 15 9.36911686 14.50854594 6 14 C6 13.34 6 12.68 6 12 C4.02 12.33 2.04 12.66 0 13 C-0.33 13.99 -0.66 14.98 -1 16 C-1.09688221 10.55306686 -1.12862175 5.36095333 0 0 Z "
     fill="#EA365B"
     transform="translate(420,447)"
     id="path57" />
  <path
     d="M0 0 C0.66 1.32 1.32 2.64 2 4 C3.37285156 3.98259766 3.37285156 3.98259766 4.7734375 3.96484375 C6.55621094 3.95130859 6.55621094 3.95130859 8.375 3.9375 C9.55835938 3.92589844 10.74171875 3.91429687 11.9609375 3.90234375 C15 4 15 4 17 5 C16.67 9.29 16.34 13.58 16 18 C15.67 18 15.34 18 15 18 C14.67 15.36 14.34 12.72 14 10 C10.04 10 6.08 10 2 10 C1.67 10.66 1.34 11.32 1 12 C0.34 12 -0.32 12 -1 12 C-1.33 12.99 -1.66 13.98 -2 15 C-1.47462276 9.9697924 -0.89405214 4.98114761 0 0 Z "
     fill="#5D37B9"
     transform="translate(414,483)"
     id="path64" />
  <path
     d="M0 0 C0.33 0 0.66 0 1 0 C0.67 4.95 0.34 9.9 0 15 C-0.33 15 -0.66 15 -1 15 C-1 13.35 -1 11.7 -1 10 C-1.763125 10.020625 -2.52625 10.04125 -3.3125 10.0625 C-6 10 -6 10 -9 9 C-10.39439664 8.93334624 -11.79169875 8.91461801 -13.1875 8.9375 C-14.445625 8.958125 -15.70375 8.97875 -17 9 C-16.25 3.25 -16.25 3.25 -14 1 C-10.9609375 1.4609375 -10.9609375 1.4609375 -7.375 2.375 C-6.18648438 2.67148437 -4.99796875 2.96796875 -3.7734375 3.2734375 C-2.85820312 3.51320313 -1.94296875 3.75296875 -1 4 C-0.67 2.68 -0.34 1.36 0 0 Z "
     fill="#B43299"
     transform="translate(433,468)"
     id="path65" />
  <path
     d="M0 0 C0.66 0 1.32 0 2 0 C2 0.66 2 1.32 2 2 C8.93 2.495 8.93 2.495 16 3 C15 8 15 8 13 10 C11.08203125 9.7578125 11.08203125 9.7578125 8.8125 9.125 C4.71374756 8.09036346 1.21294758 7.82072563 -3 8 C-2.01 5.36 -1.02 2.72 0 0 Z "
     fill="#B43095"
     transform="translate(370,469)"
     id="path68" />
  <path
     d="M0 0 C1.28197266 -0.00386719 1.28197266 -0.00386719 2.58984375 -0.0078125 C4.88930852 0.11569746 6.85890348 0.48079313 9.0625 1.125 C9.206875 2.07375 9.35125 3.0225 9.5 4 C9.89185399 7.0184494 9.89185399 7.0184494 11.0625 9.125 C10.0725 9.125 9.0825 9.125 8.0625 9.125 C8.0625 8.135 8.0625 7.145 8.0625 6.125 C2.83504141 4.9186634 -1.70278314 5.36887423 -6.9375 6.125 C-6.9375 7.775 -6.9375 9.425 -6.9375 11.125 C-7.2675 11.125 -7.5975 11.125 -7.9375 11.125 C-7.9375 7.825 -7.9375 4.525 -7.9375 1.125 C-5.0043642 0.14728807 -3.05571006 -0.00919011 0 0 Z "
     fill="#792FAD"
     transform="translate(351.9375,478.875)"
     id="path69" />
  <path
     d="M0 0 C0.33 1.32 0.66 2.64 1 4 C2.918125 3.9690625 2.918125 3.9690625 4.875 3.9375 C8.75 3.875 8.75 3.875 11 5 C12.35339258 5.04578072 13.70887217 5.03819761 15.0625 5 C19.78779311 4.93863256 24.31408219 5.40496282 29 6 C29.33 7.32 29.66 8.64 30 10 C29.01 10 28.02 10 27 10 C26.67 9.34 26.34 8.68 26 8 C24.92621094 8.01160156 23.85242188 8.02320313 22.74609375 8.03515625 C21.30989759 8.04454315 19.87369952 8.05364238 18.4375 8.0625 C17.38079102 8.07506836 17.38079102 8.07506836 16.30273438 8.08789062 C12.79277598 8.10406555 9.64592672 7.94200834 6.16015625 7.37109375 C2.84442168 6.63575155 2.84442168 6.63575155 0 9 C0 6.03 0 3.06 0 0 Z "
     fill="#3929B8"
     transform="translate(345,487)"
     id="path70" />
  <path
     d="M0 0 C0 0.99 0 1.98 0 3 C-4.95 3 -9.9 3 -15 3 C-15.33 1.35 -15.66 -0.3 -16 -2 C-10.87088053 -5.69296602 -5.21800151 -2.21369761 0 0 Z "
     fill="#6425AC"
     transform="translate(431,485)"
     id="path71" />
  <path
     d="M0 0 C1.12921875 0.13535156 1.12921875 0.13535156 2.28125 0.2734375 C4.39772937 0.60879515 6.4313137 1.07021595 8.5 1.625 C8.17 3.275 7.84 4.925 7.5 6.625 C6.489375 6.295 5.47875 5.965 4.4375 5.625 C0.74520089 4.55498679 -2.65248207 4.46795845 -6.5 4.625 C-6.83 5.285 -7.16 5.945 -7.5 6.625 C-8.49 6.295 -9.48 5.965 -10.5 5.625 C-9.75 3.1875 -9.75 3.1875 -8.5 0.625 C-5.5517159 -0.49662982 -3.09477031 -0.39214555 0 0 Z "
     fill="#922EA5"
     transform="translate(374.5,476.375)"
     id="path72" />
  <path
     d="M0 0 C0.66 0 1.32 0 2 0 C2.33 3.3 2.66 6.6 3 10 C2.195625 9.835 1.39125 9.67 0.5625 9.5 C-3.65887352 8.90752652 -7.74664545 8.91493291 -12 9 C-12.33 9.66 -12.66 10.32 -13 11 C-13.66 11 -14.32 11 -15 11 C-15 9.02 -15 7.04 -15 5 C-14.67 5.66 -14.34 6.32 -14 7 C-12.80375 6.67 -11.6075 6.34 -10.375 6 C-6.84208503 5.10734177 -3.65920891 4.81703955 0 5 C0 3.35 0 1.7 0 0 Z "
     fill="#F74E30"
     transform="translate(353,438)"
     id="path73" />
  <path
     d="M0 0 C0 2.31 0 4.62 0 7 C-5.66666667 7 -11.33333333 7 -17 7 C-17.33 5.68 -17.66 4.36 -18 3 C-16.68 3 -15.36 3 -14 3 C-11.38405698 2.60760855 -9.34163987 2.18149618 -7 0.9375 C-4.55010213 -0.21088963 -2.67361665 -0.14853426 0 0 Z "
     fill="#F54529"
     transform="translate(439,439)"
     id="path74" />
  <path
     d="M0 0 C1.65 0 3.3 0 5 0 C5 0.66 5 1.32 5 2 C6.918125 1.938125 6.918125 1.938125 8.875 1.875 C11.0546875 1.8046875 11.0546875 1.8046875 13 2 C13.66 2.66 14.32 3.32 15 4 C14.67 4.99 14.34 5.98 14 7 C13.34 6.67 12.68 6.34 12 6 C10.16722527 5.9547463 8.33292719 5.96141206 6.5 6 C1.22222222 6.11111111 1.22222222 6.11111111 -1 5 C-0.67 3.35 -0.34 1.7 0 0 Z "
     fill="#F64522"
     transform="translate(385,441)"
     id="path75" />
  <path
     d="M0 0 C0.33 0 0.66 0 1 0 C1.33 3.63 1.66 7.26 2 11 C1.67 10.34 1.34 9.68 1 9 C0.40832031 9.01160156 -0.18335938 9.02320313 -0.79296875 9.03515625 C-5.04558167 9.0837179 -8.82585898 8.85938197 -13 8 C-13.99 8.33 -14.98 8.66 -16 9 C-16.33 7.68 -16.66 6.36 -17 5 C-14.72923158 4.97300275 -12.45837179 4.95360547 -10.1875 4.9375 C-8.92292969 4.92589844 -7.65835937 4.91429687 -6.35546875 4.90234375 C-3 5 -3 5 0 6 C0 4.02 0 2.04 0 0 Z "
     fill="#DB3276"
     transform="translate(357,458)"
     id="path76" />
  <path
     d="M0 0 C15.18 0 30.36 0 46 0 C45.67 1.32 45.34 2.64 45 4 C45 3.01 45 2.02 45 1 C39.09124792 1.04412923 33.18356682 1.11393803 27.27539062 1.20751953 C25.26571173 1.23573807 23.25592166 1.25694821 21.24609375 1.27099609 C18.35619151 1.29241335 15.4676271 1.33905703 12.578125 1.390625 C11.68007141 1.39185364 10.78201782 1.39308228 9.85675049 1.39434814 C4.73101267 1.47011115 4.73101267 1.47011115 0.40136719 4.03808594 C-0.06108398 4.68551758 -0.52353516 5.33294922 -1 6 C-0.67 4.02 -0.34 2.04 0 0 Z "
     fill="#3752A8"
     transform="translate(583,422)"
     id="path77" />
  <path
     d="M0 0 C5.28 0.33 10.56 0.66 16 1 C16.33 2.32 16.66 3.64 17 5 C11.39 4.67 5.78 4.34 0 4 C0 2.68 0 1.36 0 0 Z "
     fill="#A72C99"
     transform="translate(342,471)"
     id="path79" />
  <path
     d="M0 0 C4.95 0 9.9 0 15 0 C15.33 1.32 15.66 2.64 16 4 C14.5625 6.25 14.5625 6.25 13 8 C13 6.68 13 5.36 13 4 C8.71 3.67 4.42 3.34 0 3 C0 2.01 0 1.02 0 0 Z "
     fill="#6828B2"
     transform="translate(363,485)"
     id="path82" />
  <path
     d="M0 0 C0.51046875 0.64453125 1.0209375 1.2890625 1.546875 1.953125 C4.81323888 4.67856238 7.04444839 4.59423883 11.25 4.75 C13.14492188 4.83507812 13.14492188 4.83507812 15.078125 4.921875 C16.04234375 4.94765625 17.0065625 4.9734375 18 5 C18 5.99 18 6.98 18 8 C12.39 7.67 6.78 7.34 1 7 C0.67 4.69 0.34 2.38 0 0 Z "
     fill="#E42F60"
     transform="translate(339,456)"
     id="path85" />
  <path
     d="M0 0 C5.28 0 10.56 0 16 0 C16 0.33 16 0.66 16 1 C14.824375 1.1546875 14.824375 1.1546875 13.625 1.3125 C10.66954819 1.77595022 10.66954819 1.77595022 9 5 C5.73453724 5.41686759 3.83011613 5.60875183 1.125 3.625 C0 2 0 2 0 0 Z "
     fill="#E6E7E6"
     transform="translate(784,560)"
     id="path86" />
  <path
     d="M0 0 C5.28 0 10.56 0 16 0 C16 0.33 16 0.66 16 1 C14.8553125 1.1546875 14.8553125 1.1546875 13.6875 1.3125 C10.97045327 1.75593985 10.97045327 1.75593985 9.5 3.5625 C8 5 8 5 5.5 5.375 C3 5 3 5 1.1875 3.625 C0 2 0 2 0 0 Z "
     fill="#E3E3E3"
     transform="translate(624,560)"
     id="path88" />
  <path
     d="M0 0 C3.5219721 -0.08004482 6.61981469 -0.04005702 10 1 C9.67 2.65 9.34 4.3 9 6 C8.34 6 7.68 6 7 6 C6.67 6.99 6.34 7.98 6 9 C5.67 8.34 5.34 7.68 5 7 C4.01 6.67 3.02 6.34 2 6 C2 4.68 2 3.36 2 2 C1.34 2 0.68 2 0 2 C0 1.34 0 0.68 0 0 Z "
     fill="#EF2B46"
     transform="translate(428,450)"
     id="path91" />
  <path
     d="M0 0 C0.73863281 -0.00773437 1.47726562 -0.01546875 2.23828125 -0.0234375 C7.10537631 -0.00626962 11.13202607 0.71067536 15.75 2.25 C12.49741974 3.24384397 9.71534629 3.29826731 6.328125 3.12890625 C4.79091797 3.05639648 4.79091797 3.05639648 3.22265625 2.98242188 C1.62744141 2.89831055 1.62744141 2.89831055 0 2.8125 C-1.07894531 2.76029297 -2.15789063 2.70808594 -3.26953125 2.65429688 C-5.92999422 2.52480531 -8.59006452 2.38984639 -11.25 2.25 C-7.45437255 -0.2804183 -4.39305886 -0.04505701 0 0 Z "
     fill="#3552A5"
     transform="translate(961.25,420.75)"
     id="path92" />
  <path
     d="M0 0 C-1.1875 1.5234375 -1.1875 1.5234375 -3 3 C-5.375 3.0390625 -5.375 3.0390625 -8 2.625 C-11.30830622 2.12284638 -12.76245395 1.92081798 -16 3 C-16 1.68 -16 0.36 -16 -1 C-10.31632113 -2.89455962 -5.50196983 -2.14711018 0 0 Z "
     fill="#912AA3"
     transform="translate(432,478)"
     id="path93" />
  <path
     d="M0 0 C0.66 0 1.32 0 2 0 C2 0.66 2 1.32 2 2 C2.5775 1.835 3.155 1.67 3.75 1.5 C8.59583457 0.42314787 12.3740841 1.57664126 17 3 C17 5.31 17 7.62 17 10 C16.67 10 16.34 10 16 10 C16 8.35 16 6.7 16 5 C15.236875 5.020625 14.47375 5.04125 13.6875 5.0625 C11 5 11 5 8 4 C6.60560336 3.93334624 5.20830125 3.91461801 3.8125 3.9375 C2.554375 3.958125 1.29625 3.97875 0 4 C0 2.68 0 1.36 0 0 Z "
     fill="#A638A4"
     transform="translate(416,473)"
     id="path94" />
  <path
     d="M0 0 C0.66 0 1.32 0 2 0 C2 0.66 2 1.32 2 2 C6.95 2 11.9 2 17 2 C16.34 3.32 15.68 4.64 15 6 C15 5.34 15 4.68 15 4 C11.04 4 7.08 4 3 4 C2.67 4.66 2.34 5.32 2 6 C1.34 6 0.68 6 0 6 C-0.33 6.99 -0.66 7.98 -1 9 C-0.67 6.03 -0.34 3.06 0 0 Z "
     fill="#4C33BA"
     transform="translate(413,489)"
     id="path96" />
  <path
     d="M0 0 C5.61 0 11.22 0 17 0 C17 2.31 17 4.62 17 7 C16.34 6.34 15.68 5.68 15 5 C15 4.01 15 3.02 15 2 C11.04 2 7.08 2 3 2 C2.01 4.31 1.02 6.62 0 9 C-0.33 9 -0.66 9 -1 9 C-0.67 6.03 -0.34 3.06 0 0 Z "
     fill="#F78936"
     transform="translate(425,422)"
     id="path97" />
  <path
     d="M0 0 C1.43859375 0.17789062 1.43859375 0.17789062 2.90625 0.359375 C3.8653125 0.46765625 4.824375 0.5759375 5.8125 0.6875 C8.40625 1.109375 8.40625 1.109375 11.40625 2.109375 C11.07625 3.099375 10.74625 4.089375 10.40625 5.109375 C5.12625 4.449375 -0.15375 3.789375 -5.59375 3.109375 C-2.59375 0.109375 -2.59375 0.109375 0 0 Z "
     fill="#CC3183"
     transform="translate(346.59375,464.890625)"
     id="path100" />
  <path
     d="M0 0 C1.07894531 0.30164063 2.15789062 0.60328125 3.26953125 0.9140625 C4.35621094 1.21054687 5.44289063 1.50703125 6.5625 1.8125 C7.39394531 2.05226563 8.22539062 2.29203125 9.08203125 2.5390625 C8.75203125 3.5290625 8.42203125 4.5190625 8.08203125 5.5390625 C7.49035156 5.3946875 6.89867187 5.2503125 6.2890625 5.1015625 C2.15673184 4.13083556 -1.64094495 3.26312548 -5.91796875 3.5390625 C-5.91796875 2.8790625 -5.91796875 2.2190625 -5.91796875 1.5390625 C-2.91796875 -0.4609375 -2.91796875 -0.4609375 0 0 Z "
     fill="#A72E9A"
     transform="translate(374.91796875,473.4609375)"
     id="path101" />
  <path
     d="M0 0 C-1.33586054 2.88164201 -2.83637331 5.25276708 -4.875 7.6875 C-5.36742187 8.28949219 -5.85984375 8.89148438 -6.3671875 9.51171875 C-8.22477098 11.20487499 -9.54739113 11.60184921 -12 12 C-4.57142857 0 -4.57142857 0 0 0 Z "
     fill="#27479E"
     transform="translate(935,430)"
     id="path102" />
  <path
     d="M0 0 C5.61 0 11.22 0 17 0 C16.34 2.31 15.68 4.62 15 7 C14.67 7 14.34 7 14 7 C14 5.02 14 3.04 14 1 C12.06183265 1.1141866 10.12444901 1.24173423 8.1875 1.375 C7.10855469 1.44460938 6.02960937 1.51421875 4.91796875 1.5859375 C1.81373814 1.81195733 1.81373814 1.81195733 -1 4 C-0.67 2.68 -0.34 1.36 0 0 Z "
     fill="#304AA0"
     transform="translate(557,422)"
     id="path105" />
  <path
     d="M0 0 C0.33 0.66 0.66 1.32 1 2 C2.60875 1.690625 2.60875 1.690625 4.25 1.375 C7.87619096 1.0123809 9.08291076 1.01637931 12 3 C9.04335481 4.4783226 6.25770263 4.06032783 3 4 C2.67 4.66 2.34 5.32 2 6 C1.34 6 0.68 6 0 6 C0 4.02 0 2.04 0 0 Z "
     fill="#F73723"
     transform="translate(338,443)"
     id="path106" />
  <path
     d="M0 0 C6.27 0 12.54 0 19 0 C18.34 1.32 17.68 2.64 17 4 C16.67 3.01 16.34 2.02 16 1 C13.72858891 1.11402064 11.45785448 1.24158505 9.1875 1.375 C7.29064453 1.47941406 7.29064453 1.47941406 5.35546875 1.5859375 C1.87244766 1.76102939 1.87244766 1.76102939 -1 4 C-0.67 2.68 -0.34 1.36 0 0 Z "
     fill="#F88A2E"
     transform="translate(393,422)"
     id="path107" />
  <path
     d="M0 0 C0.33 1.32 0.66 2.64 1 4 C2.918125 3.938125 2.918125 3.938125 4.875 3.875 C7.0546875 3.8046875 7.0546875 3.8046875 9 4 C9.66 4.66 10.32 5.32 11 6 C8.03 6 5.06 6 2 6 C1.67 6.99 1.34 7.98 1 9 C0.67 9 0.34 9 0 9 C0 6.03 0 3.06 0 0 Z "
     fill="#4328B1"
     transform="translate(345,487)"
     id="path108" />
  <path
     d="M0 0 C3.4375 1.3125 3.4375 1.3125 5.4375 4.3125 C1.4775 3.9825 -2.4825 3.6525 -6.5625 3.3125 C-6.5625 2.6525 -6.5625 1.9925 -6.5625 1.3125 C-3.5625 -0.6875 -3.5625 -0.6875 0 0 Z "
     fill="#7525AA"
     transform="translate(422.5625,481.6875)"
     id="path109" />
  <path
     d="M0 0 C5.94 0 11.88 0 18 0 C18 0.33 18 0.66 18 1 C13.05 1.33 8.1 1.66 3 2 C2.34 3.65 1.68 5.3 1 7 C0.67 7 0.34 7 0 7 C0 4.69 0 2.38 0 0 Z "
     fill="#F88B34"
     transform="translate(334,422)"
     id="path110" />
  <path
     d="M0 0 C0 0.66 0 1.32 0 2 C-1.3303125 2.185625 -1.3303125 2.185625 -2.6875 2.375 C-5.70387502 2.94412736 -8.20326054 3.76614436 -11 5 C-11.33 3.68 -11.66 2.36 -12 1 C-10.56496445 0.63597631 -9.12683494 0.28413409 -7.6875 -0.0625 C-6.88699219 -0.25972656 -6.08648437 -0.45695312 -5.26171875 -0.66015625 C-3 -1 -3 -1 0 0 Z "
     fill="#6426AE"
     transform="translate(357,484)"
     id="path111" />
  <path
     d="M0 0 C1.16402344 0.16048828 1.16402344 0.16048828 2.3515625 0.32421875 C3.50785156 0.47310547 3.50785156 0.47310547 4.6875 0.625 C6.82189588 0.98558906 8.88614821 1.45332041 10.9765625 2.01171875 C10.9765625 2.67171875 10.9765625 3.33171875 10.9765625 4.01171875 C8.97701504 4.05426231 6.97614614 4.05252658 4.9765625 4.01171875 C4.6465625 3.68171875 4.3165625 3.35171875 3.9765625 3.01171875 C2.62909166 2.78096793 1.27278685 2.60018812 -0.0859375 2.44921875 C-1.3853125 2.30484375 -2.6846875 2.16046875 -4.0234375 2.01171875 C-2.0234375 0.01171875 -2.0234375 0.01171875 0 0 Z "
     fill="#9A2A9E"
     transform="translate(372.0234375,475.98828125)"
     id="path112" />
  <path
     d="M0 0 C0.33 0 0.66 0 1 0 C1.33 3.63 1.66 7.26 2 11 C1.67 10.34 1.34 9.68 1 9 C0.01 8.835 -0.98 8.67 -2 8.5 C-2.99 8.335 -3.98 8.17 -5 8 C-5.33 7.34 -5.66 6.68 -6 6 C-3 5 -3 5 0 6 C0 4.02 0 2.04 0 0 Z "
     fill="#DE4A85"
     transform="translate(357,458)"
     id="path113" />
  <path
     d="M0 0 C1.670625 0.061875 1.670625 0.061875 3.375 0.125 C3.705 1.445 4.035 2.765 4.375 4.125 C-3.375 3.25 -3.375 3.25 -5.625 2.125 C-3.625 0.125 -3.625 0.125 0 0 Z "
     fill="#8927A3"
     transform="translate(355.625,476.875)"
     id="path114" />
  <path
     d="M0 0 C0.33 0.66 0.66 1.32 1 2 C2.98 1.67 4.96 1.34 7 1 C7 1.66 7 2.32 7 3 C5.824375 3.37125 5.824375 3.37125 4.625 3.75 C1.54375423 4.88704012 1.54375423 4.88704012 0 9 C0 6.03 0 3.06 0 0 Z "
     fill="#8E36A7"
     transform="translate(343,476)"
     id="path115" />
  <path
     d="M0 0 C0.33 0.99 0.66 1.98 1 3 C-0.40445835 5.2636564 -2.1967913 7.0208685 -4 9 C-4.66 8.67 -5.32 8.34 -6 8 C-4.02 5.36 -2.04 2.72 0 0 Z "
     fill="#304B9E"
     transform="translate(229,421)"
     id="path116" />
  <path
     d="M0 0 C0.33 1.32 0.66 2.64 1 4 C-0.375 5.5625 -0.375 5.5625 -2 7 C-2.33 7.99 -2.66 8.98 -3 10 C-3.99 9.67 -4.98 9.34 -6 9 C-4.02 6.03 -2.04 3.06 0 0 Z "
     fill="#3851A9"
     transform="translate(304,395)"
     id="path117" />
  <path
     d="M0 0 C0.66 0 1.32 0 2 0 C1.67 2.97 1.34 5.94 1 9 C0.34 9 -0.32 9 -1 9 C-0.67 6.03 -0.34 3.06 0 0 Z "
     fill="#2A4A96"
     transform="translate(831,495)"
     id="path118" />
  <path
     d="M0 0 C0.66 0 1.32 0 2 0 C2 1.65 2 3.3 2 5 C1.01 5.33 0.02 5.66 -1 6 C-1 6.66 -1 7.32 -1 8 C-1.66 7.67 -2.32 7.34 -3 7 C-2.01 4.69 -1.02 2.38 0 0 Z "
     fill="#BB429D"
     transform="translate(370,469)"
     id="path119" />
  <path
     d="M0 0 C1.48199902 0.44909061 2.96055236 0.90956564 4.4375 1.375 C5.26121094 1.63023437 6.08492187 1.88546875 6.93359375 2.1484375 C9 3 9 3 10 5 C6.58978257 4.21302675 3.31114834 3.12880057 0 2 C0 1.34 0 0.68 0 0 Z "
     fill="#28439E"
     transform="translate(681,423)"
     id="path120" />
  <path
     d="M0 0 C0.66 0 1.32 0 2 0 C2 2.31 2 4.62 2 7 C1.01 7 0.02 7 -1 7 C-1.33 6.34 -1.66 5.68 -2 5 C-1.0625 2.375 -1.0625 2.375 0 0 Z "
     fill="#BCC7E3"
     transform="translate(516,450)"
     id="path121" />
  <path
     d="M0 0 C0.33 0.99 0.66 1.98 1 3 C-0.9375 5.6875 -0.9375 5.6875 -3 8 C-3.66 7.67 -4.32 7.34 -5 7 C-3.35 4.69 -1.7 2.38 0 0 Z "
     fill="#304CA4"
     transform="translate(255,426)"
     id="path122" />
  <text
     xml:space="preserve"
     style="font-style:normal;font-variant:normal;font-weight:normal;font-stretch:normal;font-size:37.3333px;font-family:'Bodoni MT';-inkscape-font-specification:'Bodoni MT';writing-mode:lr-tb;direction:ltr;fill:#fa6f28;fill-opacity:1"
     x="599.08325"
     y="559.55609"
     id="text129"><tspan
       sodipodi:role="line"
       id="tspan129"
       x="599.08325"
       y="559.55609" /></text>
  <text
     xml:space="preserve"
     style="font-style:normal;font-variant:normal;font-weight:normal;font-stretch:normal;font-size:37.3333px;font-family:'Bodoni MT';-inkscape-font-specification:'Bodoni MT';writing-mode:lr-tb;direction:ltr;fill:#eb3656;fill-opacity:1"
     x="345.86249"
     y="573.14355"
     id="text130"><tspan
       sodipodi:role="line"
       id="tspan130"
       x="345.86249"
       y="573.14355"
       style="fill:#eb3656;fill-opacity:1">AI, LabVIEW, Web &amp; Cloud in Sync</tspan><tspan
       sodipodi:role="line"
       x="345.86249"
       y="619.81018"
       id="tspan131" /></text>
  <text
     xml:space="preserve"
     id="text131"
     style="font-style:normal;font-variant:normal;font-weight:normal;font-stretch:normal;font-size:37.3333px;font-family:'Bodoni MT';-inkscape-font-specification:'Bodoni MT';writing-mode:lr-tb;direction:ltr;white-space:pre;shape-inside:url(#rect131);display:inline;fill:#fa6f28;fill-opacity:1" />
  <text
     xml:space="preserve"
     style="font-style:normal;font-variant:normal;font-weight:normal;font-stretch:normal;font-size:37.3333px;font-family:'Bodoni MT';-inkscape-font-specification:'Bodoni MT';writing-mode:lr-tb;direction:ltr;fill:#0a2e89;fill-opacity:1"
     x="938.06885"
     y="495.23746"
     id="text133"><tspan
       sodipodi:role="line"
       id="tspan133"></tspan></text>
</svg>
