<?xml version="1.0" encoding="UTF-8" standalone="no"?>
<!-- Created with Inkscape (http://www.inkscape.org/) -->

<svg
   width="210mm"
   height="297mm"
   viewBox="0 0 210 297"
   version="1.1"
   id="svg1"
   inkscape:version="1.4.3 (0d15f75, 2025-12-25)"
   xmlns:inkscape="http://www.inkscape.org/namespaces/inkscape"
   xmlns:sodipodi="http://sodipodi.sourceforge.net/DTD/sodipodi-0.dtd"
   xmlns="http://www.w3.org/2000/svg"
   xmlns:svg="http://www.w3.org/2000/svg">
  <sodipodi:namedview
     id="namedview1"
     pagecolor="#505050"
     bordercolor="#eeeeee"
     borderopacity="1"
     inkscape:showpageshadow="0"
     inkscape:pageopacity="0"
     inkscape:pagecheckerboard="0"
     inkscape:deskcolor="#505050"
     inkscape:document-units="mm"
     inkscape:zoom="0.73851712"
     inkscape:cx="467.15234"
     inkscape:cy="561.25984"
     inkscape:window-width="1920"
     inkscape:window-height="1009"
     inkscape:window-x="-8"
     inkscape:window-y="-8"
     inkscape:window-maximized="1"
     inkscape:current-layer="layer1" />
  <defs
     id="defs1">
    <rect
       x="831.30518"
       y="555.8504"
       width="133.4041"
       height="45.703259"
       id="rect131" />
  </defs>
  <g
     inkscape:label="Layer 1"
     inkscape:groupmode="layer"
     id="layer1">
    <path
       d="m 1.7875551,1.046931 c 89.4079929,0 178.8159949,0 270.9333249,0 0,89.408 0,178.815999 0,270.933329 -89.408,0 -178.815992,0 -270.9333249,0 0,-89.408 0,-178.815996 0,-270.933329 z"
       fill="#fdfdfd"
       id="path1"
       style="stroke-width:0.264583" />
    <path
       d="m 21.912344,102.06839 c 4.365625,0 8.73125,0 13.229167,0 1.956551,3.4462 3.895303,6.90037 5.805717,10.37222 1.839871,3.3433 3.701537,6.67405 5.571366,10.0007 4.236513,0.53969 4.236513,0.53969 8.261897,-0.31239 0.878531,-0.8089 1.367785,-1.8118 1.834515,-2.89762 0.331481,-0.73674 0.785479,-1.37149 1.247598,-2.03205 0.170873,-0.25887 0.341746,-0.51774 0.517797,-0.78445 0.666171,-0.99025 1.354037,-1.96347 2.045354,-2.93625 1.270466,-1.78955 2.51792,-3.5938 3.753776,-5.40743 0.159128,-0.23341 0.318257,-0.46683 0.482206,-0.70732 0.234024,-0.34411 0.234024,-0.34411 0.472773,-0.69517 0.243266,-0.34194 0.243266,-0.34194 0.491445,-0.69079 0.500232,-0.73452 0.500232,-0.73452 0.848527,-1.61049 0.487127,-1.01296 0.853985,-1.59776 1.739945,-2.29896 1.962248,-0.52947 4.078917,-0.2967 6.085416,-0.19844 0.563923,0.0159 1.127887,0.0304 1.691886,0.0434 1.37726,0.0349 2.752905,0.0879 4.128952,0.15503 -0.50369,1.04613 -1.139705,1.9767 -1.802478,2.92695 -0.264666,0.38201 -0.529244,0.76407 -0.79375,1.14619 -0.138473,0.19973 -0.276945,0.39947 -0.419614,0.60526 -0.559869,0.81027 -1.114578,1.62401 -1.669277,2.43783 -2.095071,3.07282 -4.228968,6.11783 -6.366666,9.16107 -0.466966,0.66499 -0.933672,1.33017 -1.400172,1.99549 -0.152308,0.21721 -0.304613,0.43443 -0.461534,0.65822 -1.221917,1.74619 -2.427439,3.50325 -3.622712,5.26777 -0.940356,1.38329 -1.918862,2.72031 -2.965453,4.02585 -0.43756,0.78655 -0.443611,1.31574 -0.342098,2.20245 0.565825,0.56583 0.828873,0.64203 1.5875,0.79375 0.07145,-0.1513 0.142907,-0.30261 0.216524,-0.4585 0.320927,-0.61573 0.681988,-1.1629 1.081588,-1.73051 0.15173,-0.21617 0.303461,-0.43234 0.45979,-0.65506 0.162049,-0.22926 0.324096,-0.45852 0.491056,-0.69473 0.167847,-0.23864 0.335693,-0.47728 0.508625,-0.72315 1.017045,-1.44422 2.041839,-2.88266 3.072164,-4.31743 1.247492,-1.74254 2.465303,-3.50581 3.687178,-5.26635 1.07039,-1.5415 2.146948,-3.07823 3.232684,-4.60895 1.097947,-1.54828 2.173944,-3.11022 3.241146,-4.67982 1.573953,-2.31425 3.202979,-4.58581 4.854679,-6.84506 0.29247,-0.40745 0.57219,-0.82396 0.8504,-1.24127 0.52154,-0.0901 0.52154,-0.0901 1.15135,-0.0775 0.33765,0.004 0.33765,0.004 0.68213,0.008 0.23533,0.007 0.47067,0.0133 0.71313,0.0202 0.35607,0.005 0.35607,0.005 0.71934,0.0109 0.5872,0.009 1.17409,0.0224 1.76113,0.0388 -0.39027,1.15581 -1.01819,2.03654 -1.75286,2.9931 -1.33795,1.77968 -2.57772,3.61516 -3.80339,5.47357 -1.13968,1.72508 -2.27979,3.44026 -3.522263,5.09323 -1.386782,1.84716 -2.676822,3.7581 -3.96875,5.672 -1.787872,2.64837 -3.596646,5.27957 -5.435328,7.89306 -1.152535,1.63867 -2.283645,3.29195 -3.416458,4.94427 -0.503428,0.7329 -1.009997,1.46358 -1.516574,2.19431 -0.728366,1.0508 -1.454332,2.10315 -2.177645,3.15743 -1.519258,2.21429 -3.050497,4.42008 -4.587057,6.6224 -0.826548,1.18566 -1.650011,2.3729 -2.45954,3.57026 -0.133186,0.19645 -0.266372,0.39291 -0.403593,0.59531 -0.243811,0.36053 -0.486429,0.72188 -0.727604,1.08418 -0.519335,0.76699 -0.901772,1.25058 -1.683102,1.77146 -1.213975,-1.50229 -2.317438,-3.05204 -3.378605,-4.66534 -0.66304,-1.00614 -1.345507,-1.9986 -2.028817,-2.99104 -0.122101,-0.17831 -0.244202,-0.35662 -0.370003,-0.54034 -0.598146,-0.87156 -1.202871,-1.73648 -1.826245,-2.59022 -0.168347,-0.23357 -0.168347,-0.23357 -0.340096,-0.47187 -0.305583,-0.42287 -0.614636,-0.84323 -0.92391,-1.26342 -0.392741,-0.70693 -0.392741,-0.70693 -0.365869,-1.27538 0.257158,-0.52996 0.553607,-0.9323 0.932243,-1.38286 0.519812,-0.70309 0.628385,-0.87586 0.628385,-1.78593 -0.236655,-0.7737 -0.236655,-0.7737 -0.694531,-1.43868 -0.363802,-0.64492 -0.363802,-0.64492 -0.314193,-1.33945 0.214974,-0.62838 0.214974,-0.62838 0.744141,-1.42213 0.1972,-1.64401 -0.277204,-2.59062 -1.091406,-3.95222 -0.117412,-0.20376 -0.234823,-0.40753 -0.355793,-0.61747 -0.395525,-0.68406 -0.796842,-1.3645 -1.198634,-2.0449 -0.290352,-0.49662 -0.580421,-0.99341 -0.870232,-1.49035 -0.462699,-0.79311 -0.925742,-1.58601 -1.390225,-2.37808 -1.122185,-1.91683 -2.215657,-3.84807 -3.295793,-5.78886 -1.277746,-2.29234 -2.57027,-4.57535 -3.886068,-6.84609 -0.155696,-0.27064 -0.311392,-0.54127 -0.471806,-0.82011 -0.145464,-0.24983 -0.290928,-0.49966 -0.4408,-0.75706 -0.127451,-0.21977 -0.254903,-0.43954 -0.386216,-0.66598 -0.350271,-0.53579 -0.675388,-0.95097 -1.16511,-1.3618 -0.604123,-0.0956 -0.604123,-0.0956 -1.240234,-0.0496 -0.380339,0.0165 -0.760678,0.0331 -1.141016,0.0496 0.837698,1.5486 1.685775,3.09059 2.552816,4.62297 0.162005,0.28667 0.324011,0.57333 0.490926,0.86868 0.335531,0.59296 0.671796,1.18551 1.008724,1.77767 0.159959,0.2836 0.319918,0.56719 0.484724,0.85938 0.145081,0.25582 0.290161,0.51164 0.439638,0.77521 0.314839,0.62109 0.314839,0.62109 0.314839,1.15026 -1.443323,0.40488 -2.832102,0.66682 -4.233334,0 -1.467849,-1.51558 -2.325431,-3.56885 -3.247088,-5.44205 -0.738186,-1.46635 -1.569752,-2.87752 -2.391844,-4.29793 -0.286875,-0.5026 -0.57258,-1.00587 -0.856795,-1.50998 -0.119138,-0.21038 -0.238276,-0.42075 -0.361025,-0.6375 -0.286998,-0.54796 -0.286998,-0.54796 -0.551581,-1.34171 z"
       fill="#1b3a93"
       id="path2"
       style="stroke-width:0.264583" />
    <path
       d="m 5.2435938,102.06839 c 2.008187,0 4.016375,0 6.0854172,0 0.474761,0.84584 0.949523,1.69168 1.438671,2.56315 2.98357,5.29109 6.088815,10.51189 9.19046,15.73431 1.023569,1.72491 2.039498,3.45399 3.047359,5.18812 0.461117,0.79275 0.924483,1.58415 1.388223,2.37537 0.494914,0.84518 0.980897,1.69387 1.455208,2.55075 0.181844,0.31905 0.363739,0.63807 0.545703,0.95705 0.144612,0.26194 0.289223,0.52387 0.438217,0.79375 0.463711,0.61807 0.463711,0.61807 1.322916,0.62839 0.724797,-0.0179 0.724797,-0.0179 1.016992,-0.36381 0.325775,-1.97107 -0.731964,-3.37637 -1.703255,-5.02708 -0.170724,-0.29709 -0.341448,-0.59418 -0.517345,-0.90027 -0.95853,-1.66192 -1.932314,-3.3153 -2.929731,-4.95422 -0.972007,-1.59959 -1.903395,-3.22225 -2.836778,-4.8446 -1.334238,-2.31816 -2.671357,-4.63453 -4.018359,-6.94531 -0.152584,-0.26181 -0.305168,-0.52362 -0.462375,-0.79336 -0.981217,-1.67987 -1.972912,-3.35301 -2.990515,-5.01113 -0.395371,-0.64959 -0.704011,-1.22572 -0.945808,-1.95111 1.444102,-0.40509 2.829808,-0.66208 4.233333,0 1.466501,1.50249 2.313381,3.56457 3.234816,5.42538 0.765517,1.50807 1.63008,2.9563 2.486799,4.41381 0.333119,0.57598 0.665579,1.15234 0.997355,1.7291 0.160172,0.27835 0.320345,0.5567 0.485371,0.84348 0.446014,0.77804 0.889444,1.55747 1.331572,2.33772 0.269004,0.47442 0.538064,0.94881 0.807186,1.42317 0.127004,0.2239 0.254008,0.44781 0.38486,0.67851 0.949567,1.6628 1.946539,3.29145 2.986834,4.89905 0.778957,1.21451 0.778957,1.21451 0.778957,1.7977 0.34925,-0.17463 0.6985,-0.34925 1.058333,-0.52917 0.156004,-1.81769 -0.130429,-2.94527 -1.091406,-4.48138 -0.107754,-0.18166 -0.215511,-0.36332 -0.32653,-0.55048 -0.316122,-0.5308 -0.63866,-1.05711 -0.963314,-1.58272 -0.314563,-0.51792 -0.628824,-1.03602 -0.942578,-1.55443 -0.188779,-0.30184 -0.188779,-0.30184 -0.381372,-0.60978 -0.26355,-0.48163 -0.26355,-0.48163 -0.26355,-1.01079 1.309688,0 2.619375,0 3.96875,0 -0.429037,-0.78875 -0.858969,-1.57698 -1.289843,-2.36472 -0.129691,-0.23734 -0.259379,-0.47467 -0.392999,-0.7192 -0.990872,-1.80283 -2.021953,-3.57777 -3.103299,-5.32791 -0.2723,-0.45018 -0.523577,-0.91297 -0.770109,-1.37776 0.08731,-0.17462 0.174625,-0.34925 0.264584,-0.52916 0.374368,-0.0288 0.749387,-0.0492 1.124479,-0.0661 0.208731,-0.0123 0.417463,-0.0246 0.632519,-0.0372 0.861018,0.14256 1.107318,0.51264 1.682585,1.16169 0.31855,0.49353 0.620138,0.99822 0.908471,1.50999 0.169957,0.29964 0.339915,0.59929 0.515022,0.90801 0.181477,0.32398 0.362923,0.64797 0.544346,0.97197 0.189039,0.33459 0.378243,0.66909 0.5676,1.0035 0.477842,0.84472 0.953759,1.69051 1.42908,2.53666 0.547304,0.97361 1.097174,1.94578 1.646637,2.91817 0.282943,0.50077 0.565701,1.00164 0.848268,1.50262 0.885605,1.56874 1.78122,3.13126 2.685237,4.68944 0.115322,0.1998 0.230646,0.3996 0.349462,0.60546 0.649793,1.12453 1.308547,2.24293 1.975977,3.35709 0.294254,0.49814 0.588465,0.9963 0.882634,1.49449 0.1402,0.23009 0.280398,0.46018 0.424844,0.69724 0.754235,1.28677 1.199364,2.19631 0.980755,3.73453 -0.261228,0.35527 -0.525449,0.70837 -0.79375,1.05833 0.04486,0.85232 0.286324,1.36305 0.694531,2.11667 0.363802,0.79375 0.363802,0.79375 0.363802,1.43867 -0.300077,0.76894 -0.698193,1.34268 -1.20406,1.99057 -0.423003,0.57467 -0.423003,0.57467 -0.855763,1.3839 -0.64969,1.15433 -1.423181,2.2069 -2.206583,3.27318 -0.308086,0.42265 -0.616077,0.84536 -0.923975,1.26814 -0.227531,0.31176 -0.227531,0.31176 -0.459661,0.62981 -0.504975,0.69483 -1.003731,1.39385 -1.500748,2.09438 -0.420264,0.59203 -0.843264,1.18206 -1.266912,1.77166 -0.215591,0.3006 -0.430438,0.60174 -0.644663,0.90331 -0.322532,0.45287 -0.648427,0.90312 -0.975265,1.35289 -0.187925,0.26125 -0.375853,0.52251 -0.569473,0.79168 -0.166783,0.18622 -0.333563,0.37244 -0.505396,0.56431 -0.261938,0 -0.523875,0 -0.79375,0 -0.173943,-0.33305 -0.173943,-0.33305 -0.351399,-0.67283 -1.31065,-2.49189 -2.69346,-4.9382 -4.095875,-7.37939 -0.839994,-1.46248 -1.669809,-2.93057 -2.498039,-4.39974 -1.399048,-2.48046 -2.811088,-4.95333 -4.226655,-7.42438 -1.091115,-1.90527 -2.172129,-3.81539 -3.231287,-5.73864 -0.84568,-1.5348 -1.724745,-3.04326 -2.635499,-4.54022 -0.917584,-1.51677 -1.787459,-3.05929 -2.656168,-4.60444 -0.987846,-1.7568 -1.981202,-3.50867 -3.009635,-5.24206 -1.1315572,-1.90983 -2.2418822,-3.8317 -3.3457512,-5.75763 -0.193881,-0.33811 -0.388015,-0.67607 -0.582409,-1.01388 -0.273669,-0.47575 -0.546381,-0.95205 -0.818837,-1.4285 -0.159128,-0.27759 -0.318256,-0.55517 -0.482206,-0.84117 -0.376657,-0.69879 -0.376657,-0.69879 -0.64124,-1.49254 z"
       fill="#fa6f28"
       id="path3"
       style="stroke-width:0.264583" />
    <path
       d="m 21.912344,102.06839 c 4.365625,0 8.73125,0 13.229167,0 1.956551,3.4462 3.895303,6.90037 5.805717,10.37222 1.839871,3.3433 3.701537,6.67405 5.571366,10.0007 0.229067,-0.001 0.458134,-0.003 0.694143,-0.004 0.868898,-0.005 1.737782,-0.008 2.60669,-0.0103 0.372501,-10e-4 0.745003,-0.003 1.117502,-0.005 2.275088,-0.0138 4.510786,0.0444 6.778268,0.25308 0.702262,0.0888 0.702262,0.0888 1.238813,-0.23312 0,0.6985 0,1.397 0,2.11666 -0.174625,-0.26193 -0.34925,-0.52387 -0.529166,-0.79375 -0.120055,0.13097 -0.24011,0.26194 -0.363803,0.39688 -0.429947,0.39687 -0.429947,0.39687 -0.959114,0.39687 -0.09004,0.20157 -0.09004,0.20157 -0.181901,0.40721 -0.488445,0.91584 -1.078497,1.7507 -1.670182,2.60243 -0.130181,0.18835 -0.260361,0.3767 -0.394486,0.57076 -0.91522,1.3206 -1.843635,2.63129 -2.781676,3.93575 -1.179028,1.64197 -2.333053,3.30139 -3.485772,4.9619 -0.747775,1.0732 -1.510855,2.11499 -2.3339,3.13237 -0.141882,0.24556 -0.283765,0.49113 -0.429948,0.74414 -0.120054,0.19099 -0.240109,0.38199 -0.363802,0.57878 -0.174625,0 -0.34925,0 -0.529166,0 -1.083521,-1.36214 -1.083521,-1.36214 -0.999423,-2.1146 0.224473,-0.5798 0.501496,-0.94977 0.900204,-1.42421 0.519812,-0.70309 0.628385,-0.87586 0.628385,-1.78593 -0.236655,-0.7737 -0.236655,-0.7737 -0.694531,-1.43868 -0.363802,-0.64492 -0.363802,-0.64492 -0.314193,-1.33945 0.214974,-0.62838 0.214974,-0.62838 0.744141,-1.42213 0.1972,-1.64401 -0.277204,-2.59062 -1.091406,-3.95222 -0.117412,-0.20376 -0.234823,-0.40753 -0.355793,-0.61747 -0.395525,-0.68406 -0.796842,-1.3645 -1.198634,-2.0449 -0.290352,-0.49662 -0.580421,-0.99341 -0.870232,-1.49035 -0.462699,-0.79311 -0.925742,-1.58601 -1.390225,-2.37808 -1.122185,-1.91683 -2.215657,-3.84807 -3.295793,-5.78886 -1.277746,-2.29234 -2.57027,-4.57535 -3.886068,-6.84609 -0.155696,-0.27064 -0.311392,-0.54127 -0.471806,-0.82011 -0.145464,-0.24983 -0.290928,-0.49966 -0.4408,-0.75706 -0.127451,-0.21977 -0.254903,-0.43954 -0.386216,-0.66598 -0.350271,-0.53579 -0.675388,-0.95097 -1.16511,-1.3618 -0.604123,-0.0956 -0.604123,-0.0956 -1.240234,-0.0496 -0.380339,0.0165 -0.760678,0.0331 -1.141016,0.0496 0.837698,1.5486 1.685775,3.09059 2.552816,4.62297 0.162005,0.28667 0.324011,0.57333 0.490926,0.86868 0.335531,0.59296 0.671796,1.18551 1.008724,1.77767 0.159959,0.2836 0.319918,0.56719 0.484724,0.85938 0.145081,0.25582 0.290161,0.51164 0.439638,0.77521 0.314839,0.62109 0.314839,0.62109 0.314839,1.15026 -1.443323,0.40488 -2.832102,0.66682 -4.233334,0 -1.467849,-1.51558 -2.325431,-3.56885 -3.247088,-5.44205 -0.738186,-1.46635 -1.569752,-2.87752 -2.391844,-4.29793 -0.286875,-0.5026 -0.57258,-1.00587 -0.856795,-1.50998 -0.119138,-0.21038 -0.238276,-0.42075 -0.361025,-0.6375 -0.286998,-0.54796 -0.286998,-0.54796 -0.551581,-1.34171 z"
       fill="#233d9a"
       id="path5"
       style="stroke-width:0.264583" />
    <path
       d="m 28.262344,104.97881 c 0.374368,-0.0288 0.749387,-0.0492 1.124479,-0.0661 0.208732,-0.0123 0.417463,-0.0246 0.63252,-0.0372 0.861018,0.14255 1.107318,0.51263 1.682584,1.16168 0.318551,0.49353 0.620139,0.99822 0.908472,1.50999 0.254935,0.44947 0.254935,0.44947 0.51502,0.90802 0.181478,0.32397 0.362926,0.64796 0.544347,0.97197 0.18904,0.33459 0.378242,0.66908 0.567601,1.00349 0.477841,0.84473 0.953759,1.69052 1.429079,2.53667 0.547303,0.97361 1.097175,1.94577 1.646638,2.91816 0.282943,0.50077 0.565699,1.00165 0.848268,1.50263 0.885605,1.56873 1.781218,3.13125 2.685237,4.68944 0.115322,0.1998 0.230645,0.3996 0.349462,0.60545 0.649792,1.12453 1.308546,2.24293 1.975977,3.3571 0.294253,0.49813 0.588465,0.99629 0.882634,1.49448 0.140198,0.23009 0.280397,0.46018 0.424844,0.69724 0.754233,1.28678 1.199364,2.19632 0.980754,3.73453 -0.261227,0.35527 -0.525448,0.70837 -0.79375,1.05833 0.04486,0.85232 0.286324,1.36305 0.694532,2.11667 0.4226,0.92204 0.381512,1.16765 0.09922,2.11667 -0.373103,0.65009 -0.373103,0.65009 -0.810286,1.2733 -0.144953,0.20908 -0.289905,0.41815 -0.43925,0.63356 -0.111528,0.15654 -0.223056,0.31309 -0.337964,0.47439 -1.007366,-1.15228 -1.683057,-2.41185 -2.397786,-3.75378 -1.294356,-2.39146 -2.67929,-4.71089 -4.11086,-7.02192 -1.043915,-1.69436 -2.060283,-3.40561 -3.080303,-5.11442 -0.338936,-0.56728 -0.678353,-1.13425 -1.018284,-1.70093 -0.491379,-0.81927 -0.9815,-1.63928 -1.470881,-2.45974 -0.193513,-0.32401 -0.387421,-0.64778 -0.581731,-0.97131 -0.272168,-0.45337 -0.542737,-0.9077 -0.813234,-1.36207 -0.157145,-0.26283 -0.314291,-0.52566 -0.476198,-0.79646 -0.338222,-0.63187 -0.338222,-0.63187 -0.338222,-1.16104 1.309687,0 2.619375,0 3.96875,0 -0.429039,-0.78875 -0.85897,-1.57697 -1.289844,-2.36471 -0.12969,-0.23734 -0.25938,-0.47468 -0.393,-0.71921 -0.990871,-1.80283 -2.021951,-3.57776 -3.103298,-5.32791 -0.2723,-0.45018 -0.523576,-0.91296 -0.770108,-1.37775 0.08731,-0.17463 0.174625,-0.34925 0.264583,-0.52917 z"
       fill="#eb421b"
       id="path12"
       style="stroke-width:0.264583" />
    <path
       d="m 28.262344,104.97881 c 0.374368,-0.0288 0.749387,-0.0492 1.124479,-0.0661 0.208732,-0.0123 0.417463,-0.0246 0.63252,-0.0372 0.861018,0.14255 1.107318,0.51263 1.682584,1.16168 0.318551,0.49353 0.620139,0.99822 0.908472,1.50999 0.254935,0.44947 0.254935,0.44947 0.51502,0.90802 0.181478,0.32397 0.362926,0.64796 0.544347,0.97197 0.18904,0.33459 0.378242,0.66908 0.567601,1.00349 0.477841,0.84473 0.953759,1.69052 1.429079,2.53667 0.547303,0.97361 1.097175,1.94577 1.646638,2.91816 0.282943,0.50077 0.565699,1.00165 0.848268,1.50263 0.885605,1.56873 1.781218,3.13125 2.685237,4.68944 0.115322,0.1998 0.230645,0.3996 0.349462,0.60545 0.649792,1.12453 1.308546,2.24293 1.975977,3.3571 0.294253,0.49813 0.588465,0.99629 0.882634,1.49448 0.140198,0.23009 0.280397,0.46018 0.424844,0.69724 0.750189,1.27988 1.223661,2.20519 0.980754,3.73453 -0.661458,0.77721 -0.661458,0.77721 -1.322916,1.32292 -1.268743,-1.8172 -2.347416,-3.71038 -3.406511,-5.65547 -1.40337,-2.55874 -2.85156,-5.0855 -4.349088,-7.59024 -1.264114,-2.11541 -2.508231,-4.23635 -3.687759,-6.40019 -0.6405,-1.16954 -1.305134,-2.32196 -1.98528,-3.46897 -0.172024,-0.29069 -0.344049,-0.58139 -0.521286,-0.88089 -0.341745,-0.57568 -0.685262,-1.15032 -1.030686,-1.7238 -0.154289,-0.26017 -0.308578,-0.52033 -0.467543,-0.78839 -0.13973,-0.23294 -0.279459,-0.46589 -0.423423,-0.7059 -0.132664,-0.28086 -0.132664,-0.28086 -0.268007,-0.5674 0.08731,-0.17463 0.174625,-0.34925 0.264583,-0.52917 z"
       fill="#f9f8fa"
       id="path15"
       style="stroke-width:0.264583" />
    <path
       d="m 54.456093,122.44131 c 0.280355,0.0222 0.56071,0.0443 0.849561,0.0672 0.367241,0.0273 0.734488,0.0545 1.101741,0.0816 0.184857,0.0148 0.369714,0.0297 0.560173,0.045 1.024758,0.10122 1.024758,0.10122 1.986442,-0.19379 0,0.6985 0,1.397 0,2.11667 -0.174625,-0.26194 -0.34925,-0.52388 -0.529167,-0.79375 -0.120055,0.13097 -0.240109,0.26193 -0.363802,0.39687 -0.429948,0.39688 -0.429948,0.39688 -0.959115,0.39688 -0.06003,0.13438 -0.120054,0.26876 -0.181901,0.40721 -0.488444,0.91583 -1.078498,1.75069 -1.670182,2.60242 -0.13018,0.18835 -0.26036,0.37671 -0.394485,0.57077 -0.915221,1.3206 -1.843636,2.63128 -2.781678,3.93574 -1.179027,1.64197 -2.333052,3.30139 -3.485769,4.96191 -0.747777,1.07319 -1.510857,2.11499 -2.333901,3.13236 -0.141883,0.24557 -0.283766,0.49114 -0.429948,0.74414 -0.120055,0.191 -0.24011,0.382 -0.363802,0.57878 -0.174625,0 -0.34925,0 -0.529167,0 -0.578776,-0.7276 -0.578776,-0.7276 -1.058333,-1.5875 0.09532,-0.83652 0.420385,-1.32365 0.942578,-1.96784 0.489284,-0.65238 0.63875,-0.88457 0.727604,-1.71979 -0.02729,-0.18008 -0.05457,-0.36016 -0.08268,-0.5457 0.174625,0 0.34925,0 0.529166,0 0,-0.17463 0,-0.34925 0,-0.52917 0.174625,0 0.34925,0 0.529167,0 0.07088,-0.2342 0.141755,-0.46841 0.21478,-0.70971 0.297701,-0.8312 0.638062,-1.48084 1.111237,-2.22241 0.157061,-0.24676 0.314121,-0.49352 0.47594,-0.74776 0.163882,-0.25358 0.327763,-0.50716 0.496611,-0.76843 0.158765,-0.25051 0.317531,-0.50102 0.481107,-0.75912 0.907644,-1.41655 1.859598,-2.76561 2.918556,-4.07327 0.506165,-0.66526 0.847725,-1.33196 1.180936,-2.09638 0.174625,0 0.34925,0 0.529166,0 0,-0.26194 0,-0.52388 0,-0.79375 0.174625,0 0.34925,0 0.529167,0 0,-0.17463 0,-0.34925 0,-0.52917 z"
       fill="#0e286f"
       id="path17"
       style="stroke-width:0.264583" />
    <path
       d="m 72.220382,104.87545 c 0.516764,0.0344 1.033529,0.0689 1.550293,0.10335 0.130969,0.39291 0.130969,0.39291 0.264583,0.79375 -0.174625,0 -0.34925,0 -0.529166,0 -0.08697,0.26399 -0.08697,0.26399 -0.1757,0.5333 -0.468095,1.04569 -1.105499,1.91469 -1.775602,2.84014 -0.28942,0.40478 -0.578807,0.80958 -0.868164,1.2144 -0.147681,0.20562 -0.295362,0.41123 -0.447518,0.62308 -0.668757,0.93298 -1.330229,1.87105 -1.99161,2.80927 -0.129008,0.18266 -0.258015,0.36532 -0.390932,0.55351 -0.882445,1.25004 -1.760732,2.50293 -2.637049,3.75727 -0.469749,0.67179 -0.940882,1.34259 -1.412058,2.01338 -0.563813,0.80362 -1.120415,1.61136 -1.670182,2.42465 -0.119671,0.1744 -0.239342,0.34879 -0.36264,0.52846 -0.220349,0.32115 -0.438012,0.64417 -0.652415,0.96932 -0.293392,0.42355 -0.293392,0.42355 -0.845297,1.04781 -0.34925,0 -0.6985,0 -1.058333,0 -0.262967,-1.65085 -0.06099,-2.7404 0.876432,-4.13412 0.300001,-0.4127 0.600303,-0.82522 0.906276,-1.23351 0.48133,-0.6532 0.933824,-1.32496 1.389191,-1.99639 1.123922,-1.65541 2.275042,-3.2909 3.444234,-4.91456 0.678499,-0.94402 1.346547,-1.89462 2.008663,-2.85022 0.247965,-0.35722 0.247965,-0.35722 0.500939,-0.72166 0.326159,-0.47049 0.651455,-0.94159 0.97578,-1.41335 0.150132,-0.21632 0.300264,-0.43264 0.454946,-0.65551 0.132802,-0.19258 0.265604,-0.38515 0.40243,-0.58356 1.186699,-1.55257 1.186699,-1.55257 2.042899,-1.70881 z"
       fill="#f6f7fa"
       id="path18"
       style="stroke-width:0.264583" />
    <path
       d="m 210.29567,145.98922 c 1.397,0 2.794,0 4.23333,0 0,0.0873 0,0.17462 0,0.26458 -0.31105,0.0409 -0.31105,0.0409 -0.62838,0.0827 -0.78197,0.12262 -0.78197,0.12262 -1.2237,0.97565 -0.86399,0.11029 -1.36787,0.16106 -2.08359,-0.36381 -0.29766,-0.42994 -0.29766,-0.42994 -0.29766,-0.95911 z"
       fill="#e6e7e6"
       id="path86"
       style="stroke-width:0.264583" />
    <path
       d="m 167.96234,145.98922 c 1.397,0 2.794,0 4.23333,0 0,0.0873 0,0.17462 0,0.26458 -0.30286,0.0409 -0.30286,0.0409 -0.61185,0.0827 -0.71888,0.11732 -0.71888,0.11732 -1.10794,0.59531 -0.39687,0.38034 -0.39687,0.38034 -1.05833,0.47956 -0.66146,-0.0992 -0.66146,-0.0992 -1.14102,-0.46303 -0.31419,-0.42994 -0.31419,-0.42994 -0.31419,-0.95911 z"
       fill="#e3e3e3"
       id="path88"
       style="stroke-width:0.264583" />
    <path
       d="m 63.451927,109.21214 c 0.08731,0.26194 0.174625,0.52387 0.264583,0.79375 -0.371596,0.59893 -0.845817,1.06385 -1.322916,1.5875 -0.174625,-0.0873 -0.34925,-0.17463 -0.529167,-0.26458 0.523875,-0.6985 1.04775,-1.397 1.5875,-2.11667 z"
       fill="#304b9e"
       id="path116"
       style="stroke-width:0.264583" />
    <path
       d="m 83.295681,102.33298 c 0.0873,0.34925 0.17462,0.6985 0.26458,1.05833 -0.3638,0.41341 -0.3638,0.41341 -0.79375,0.79375 -0.0873,0.26194 -0.17462,0.52388 -0.26458,0.79375 -0.26194,-0.0873 -0.52387,-0.17462 -0.79375,-0.26458 0.52388,-0.78581 1.04775,-1.57163 1.5875,-2.38125 z"
       fill="#3851a9"
       id="path117"
       style="stroke-width:0.264583" />
    <path
       d="m 70.331093,110.53506 c 0.08731,0.26194 0.174625,0.52387 0.264583,0.79375 -0.51263,0.71107 -0.51263,0.71107 -1.058333,1.32292 -0.174625,-0.0873 -0.34925,-0.17463 -0.529167,-0.26459 0.436563,-0.61118 0.873125,-1.22237 1.322917,-1.85208 z"
       fill="#304ca4"
       id="path122"
       style="stroke-width:0.264583" />
  </g>
</svg>
